<svg width="20" height="21" viewBox="0 0 20 21" fill="none" xmlns="http://www.w3.org/2000/svg">
<path fill-rule="evenodd" clip-rule="evenodd" d="M5 0.125122C3.67392 0.125122 2.40215 0.651906 1.46447 1.58959C0.526784 2.52727 0 3.79904 0 5.12512V15.1251C0 16.4512 0.526784 17.723 1.46447 18.6607C2.40215 19.5983 3.67392 20.1251 5 20.1251H15C16.3261 20.1251 17.5979 19.5983 18.5355 18.6607C19.4732 17.723 20 16.4512 20 15.1251V5.12512C20 3.79904 19.4732 2.52727 18.5355 1.58959C17.5979 0.651906 16.3261 0.125122 15 0.125122H5ZM13.73 8.80912C13.8198 8.71326 13.8899 8.60064 13.9362 8.4777C13.9825 8.35475 14.0041 8.2239 13.9998 8.0926C13.9956 7.96129 13.9655 7.83212 13.9113 7.71245C13.8571 7.59277 13.7799 7.48495 13.684 7.39512C13.5881 7.3053 13.4755 7.23524 13.3526 7.18893C13.2296 7.14263 13.0988 7.121 12.9675 7.12527C12.8362 7.12954 12.707 7.15964 12.5873 7.21383C12.4677 7.26802 12.3598 7.34526 12.27 7.44112L9.187 10.7311L7.664 9.37812C7.46446 9.21224 7.20825 9.13042 6.9495 9.14994C6.69075 9.16946 6.44972 9.2888 6.27732 9.48274C6.10493 9.67669 6.01467 9.93005 6.02562 10.1893C6.03657 10.4486 6.14787 10.6934 6.336 10.8721L8.586 12.8721C8.78069 13.0451 9.03515 13.1352 9.29529 13.1235C9.55543 13.1117 9.80072 12.9989 9.979 12.8091L13.73 8.80912Z" fill="#000"/>
</svg>
