<svg width="16" height="16" viewBox="0 0 16 16" fill="none" xmlns="http://www.w3.org/2000/svg">
<path fill-rule="evenodd" clip-rule="evenodd" d="M8 16C12.4183 16 16 12.4183 16 8C16 3.58172 12.4183 0 8 0C3.58172 0 0 3.58172 0 8C0 12.4183 3.58172 16 8 16ZM5.3379 11.5173L8.04135 8.81382L10.7448 11.5173C10.8459 11.6184 10.9747 11.669 11.131 11.669C11.2873 11.669 11.4161 11.6184 11.5172 11.5173C11.6184 11.4161 11.6689 11.2874 11.6689 11.1311C11.6689 10.9747 11.6184 10.846 11.5172 10.7449L8.81376 8.04141L11.5172 5.33796C11.6184 5.23681 11.6689 5.10807 11.6689 4.95175C11.6689 4.79543 11.6184 4.6667 11.5172 4.56555C11.4161 4.4644 11.2873 4.41382 11.131 4.41382C10.9747 4.41382 10.8459 4.4644 10.7448 4.56555L8.04135 7.26899L5.3379 4.56555C5.23675 4.4644 5.10802 4.41382 4.95169 4.41382C4.79537 4.41382 4.66664 4.4644 4.56549 4.56555C4.46434 4.6667 4.41376 4.79543 4.41376 4.95175C4.41376 5.10807 4.46434 5.23681 4.56549 5.33796L7.26894 8.04141L4.56549 10.7449C4.46434 10.846 4.41376 10.9747 4.41376 11.1311C4.41376 11.2874 4.46434 11.4161 4.56549 11.5173C4.66664 11.6184 4.79537 11.669 4.95169 11.669C5.10802 11.669 5.23675 11.6184 5.3379 11.5173Z" fill="#FFB701"/>
</svg>
