<svg width="16" height="16" viewBox="0 0 16 16" fill="none" xmlns="http://www.w3.org/2000/svg">
<path d="M10.1467 4.02L11.8334 2.72666L9.70675 2.66666L9.00008 0.666664L8.29341 2.66666L6.16675 2.72666L7.85341 4.02L7.24675 6.06L9.00008 4.85333L10.7534 6.06L10.1467 4.02Z" fill="#000"/>
<path d="M13.0733 8.16667L14.1667 7.33333L12.7933 7.3L12.3333 6L11.8733 7.3L10.5 7.33333L11.5933 8.16667L11.2 9.48667L12.3333 8.70667L13.4667 9.48667L13.0733 8.16667Z" fill="#000"/>
<path d="M4.66667 4C4.66667 8.05333 7.94667 11.3333 12 11.3333C12.3533 11.3333 12.7 11.3067 13.04 11.26C11.9667 12.9067 10.1133 14 8 14C4.68667 14 2 11.3133 2 8C2 5.88667 3.09333 4.03333 4.74 2.96C4.69333 3.3 4.66667 3.64667 4.66667 4Z" fill="#000"/>
</svg>
