<svg width="37" height="37" viewBox="0 0 37 37" fill="none" xmlns="http://www.w3.org/2000/svg">
<path fill-rule="evenodd" clip-rule="evenodd" d="M18.5 37C28.7173 37 37 28.7173 37 18.5C37 8.28273 28.7173 0 18.5 0C8.28273 0 0 8.28273 0 18.5C0 28.7173 8.28273 37 18.5 37ZM19.8214 19.381H26.4286C26.779 19.381 27.1151 19.2475 27.363 19.01C27.6108 18.7726 27.75 18.4504 27.75 18.1146C27.75 17.7787 27.6108 17.4566 27.363 17.2191C27.1151 16.9816 26.779 16.8482 26.4286 16.8482H19.8214V10.5164C19.8214 10.1805 19.6822 9.8584 19.4344 9.62091C19.1866 9.38342 18.8505 9.25 18.5 9.25C18.1495 9.25 17.8134 9.38342 17.5656 9.62091C17.3178 9.8584 17.1786 10.1805 17.1786 10.5164V16.8482H10.5714C10.221 16.8482 9.88485 16.9816 9.63704 17.2191C9.38922 17.4566 9.25 17.7787 9.25 18.1146C9.25 18.4504 9.38922 18.7726 9.63704 19.01C9.88485 19.2475 10.221 19.381 10.5714 19.381H17.1786V25.7128C17.1786 26.0487 17.3178 26.3708 17.5656 26.6083C17.8134 26.8457 18.1495 26.9792 18.5 26.9792C18.8505 26.9792 19.1866 26.8457 19.4344 26.6083C19.6822 26.3708 19.8214 26.0487 19.8214 25.7128V19.381Z" fill="#FFB701"/>
</svg>
