<svg width="16" height="16" viewBox="0 0 16 16" fill="none" xmlns="http://www.w3.org/2000/svg">
<path d="M12 8C12 9.06087 11.5786 10.0783 10.8284 10.8284C10.0783 11.5786 9.06087 12 8 12C6.93913 12 5.92172 11.5786 5.17157 10.8284C4.42143 10.0783 4 9.06087 4 8C4 6.93913 4.42143 5.92172 5.17157 5.17157C5.92172 4.42143 6.93913 4 8 4C9.06087 4 10.0783 4.42143 10.8284 5.17157C11.5786 5.92172 12 6.93913 12 8Z" fill="#000"/>
<path fill-rule="evenodd" clip-rule="evenodd" d="M7.99992 0.833374C8.13253 0.833374 8.2597 0.886052 8.35347 0.979821C8.44724 1.07359 8.49992 1.20077 8.49992 1.33337V2.00004C8.49992 2.13265 8.44724 2.25983 8.35347 2.35359C8.2597 2.44736 8.13253 2.50004 7.99992 2.50004C7.86731 2.50004 7.74013 2.44736 7.64637 2.35359C7.5526 2.25983 7.49992 2.13265 7.49992 2.00004V1.33337C7.49992 1.20077 7.5526 1.07359 7.64637 0.979821C7.74013 0.886052 7.86731 0.833374 7.99992 0.833374ZM2.93259 2.93271C3.02634 2.83907 3.15342 2.78648 3.28592 2.78648C3.41842 2.78648 3.5455 2.83907 3.63925 2.93271L3.90125 3.19404C3.99238 3.2883 4.04283 3.41458 4.04176 3.54568C4.04068 3.67678 3.98815 3.80221 3.89549 3.89495C3.80283 3.9877 3.67745 4.04035 3.54635 4.04155C3.41525 4.04275 3.28893 3.99241 3.19459 3.90137L2.93259 3.63937C2.83895 3.54562 2.78636 3.41854 2.78636 3.28604C2.78636 3.15354 2.83895 3.02646 2.93259 2.93271ZM13.0673 2.93271C13.1609 3.02646 13.2135 3.15354 13.2135 3.28604C13.2135 3.41854 13.1609 3.54562 13.0673 3.63937L12.8053 3.90137C12.7105 3.98969 12.5851 4.03778 12.4556 4.03549C12.326 4.03321 12.2024 3.98073 12.1108 3.88912C12.0192 3.79751 11.9668 3.67392 11.9645 3.54439C11.9622 3.41485 12.0103 3.28949 12.0986 3.19471L12.3606 2.93271C12.4543 2.83907 12.5814 2.78648 12.7139 2.78648C12.8464 2.78648 12.9735 2.83907 13.0673 2.93271ZM0.833252 8.00004C0.833252 7.86743 0.88593 7.74026 0.979699 7.64649C1.07347 7.55272 1.20064 7.50004 1.33325 7.50004H1.99992C2.13253 7.50004 2.2597 7.55272 2.35347 7.64649C2.44724 7.74026 2.49992 7.86743 2.49992 8.00004C2.49992 8.13265 2.44724 8.25983 2.35347 8.35359C2.2597 8.44736 2.13253 8.50004 1.99992 8.50004H1.33325C1.20064 8.50004 1.07347 8.44736 0.979699 8.35359C0.88593 8.25983 0.833252 8.13265 0.833252 8.00004ZM13.4999 8.00004C13.4999 7.86743 13.5526 7.74026 13.6464 7.64649C13.7401 7.55272 13.8673 7.50004 13.9999 7.50004H14.6666C14.7992 7.50004 14.9264 7.55272 15.0201 7.64649C15.1139 7.74026 15.1666 7.86743 15.1666 8.00004C15.1666 8.13265 15.1139 8.25983 15.0201 8.35359C14.9264 8.44736 14.7992 8.50004 14.6666 8.50004H13.9999C13.8673 8.50004 13.7401 8.44736 13.6464 8.35359C13.5526 8.25983 13.4999 8.13265 13.4999 8.00004ZM12.0986 12.0987C12.1923 12.0051 12.3194 11.9525 12.4519 11.9525C12.5844 11.9525 12.7115 12.0051 12.8053 12.0987L13.0673 12.3607C13.1164 12.4065 13.1558 12.4617 13.1831 12.523C13.2104 12.5843 13.2251 12.6506 13.2263 12.7177C13.2275 12.7848 13.2151 12.8515 13.19 12.9138C13.1649 12.976 13.1274 13.0326 13.0799 13.0801C13.0325 13.1275 12.9759 13.165 12.9136 13.1901C12.8514 13.2153 12.7847 13.2276 12.7176 13.2264C12.6504 13.2253 12.5842 13.2106 12.5229 13.1832C12.4616 13.1559 12.4064 13.1165 12.3606 13.0674L12.0986 12.8054C12.005 12.7116 11.9524 12.5845 11.9524 12.452C11.9524 12.3195 12.005 12.1925 12.0986 12.0987ZM3.90125 12.0987C3.99489 12.1925 4.04748 12.3195 4.04748 12.452C4.04748 12.5845 3.99489 12.7116 3.90125 12.8054L3.63925 13.0674C3.59348 13.1165 3.53828 13.1559 3.47694 13.1832C3.41561 13.2106 3.3494 13.2253 3.28227 13.2264C3.21513 13.2276 3.14845 13.2153 3.08619 13.1901C3.02393 13.165 2.96737 13.1275 2.91989 13.0801C2.87241 13.0326 2.83498 12.976 2.80984 12.9138C2.78469 12.8515 2.77234 12.7848 2.77352 12.7177C2.77471 12.6506 2.7894 12.5843 2.81673 12.523C2.84406 12.4617 2.88346 12.4065 2.93259 12.3607L3.19392 12.0987C3.24035 12.0522 3.29549 12.0154 3.35617 11.9902C3.41685 11.9651 3.4819 11.9521 3.54759 11.9521C3.61327 11.9521 3.67832 11.9651 3.739 11.9902C3.79968 12.0154 3.85482 12.0522 3.90125 12.0987ZM7.99992 13.5C8.13253 13.5 8.2597 13.5527 8.35347 13.6465C8.44724 13.7403 8.49992 13.8674 8.49992 14V14.6667C8.49992 14.7993 8.44724 14.9265 8.35347 15.0203C8.2597 15.114 8.13253 15.1667 7.99992 15.1667C7.86731 15.1667 7.74013 15.114 7.64637 15.0203C7.5526 14.9265 7.49992 14.7993 7.49992 14.6667V14C7.49992 13.8674 7.5526 13.7403 7.64637 13.6465C7.74013 13.5527 7.86731 13.5 7.99992 13.5Z" fill="#000"/>
</svg>
