<svg width="260" height="262" viewBox="0 0 260 262" fill="none" xmlns="http://www.w3.org/2000/svg">
<path d="M129.694 262C201.323 262 259.389 228.475 259.389 187.121C259.389 145.766 201.323 112.241 129.694 112.241C58.0662 112.241 0 145.766 0 187.121C0 228.475 58.0662 262 129.694 262Z" fill="#F5F5F5"/>
<path d="M150.047 239.554C165.536 239.554 178.093 232.304 178.093 223.361C178.093 214.418 165.536 207.168 150.047 207.168C134.557 207.168 122 214.418 122 223.361C122 232.304 134.557 239.554 150.047 239.554Z" fill="#E0E0E0"/>
<path d="M135.472 168.535L60.4519 211.855C58.3415 213.074 54.6548 212.921 52.2177 211.514L25.5834 196.137C23.1463 194.729 22.8817 192.601 24.9922 191.382L100.012 148.062C102.122 146.844 105.809 146.996 108.246 148.404L134.881 163.781C137.318 165.188 137.583 167.317 135.472 168.535Z" fill="#E0E0E0"/>
<path d="M216.251 183.662L222.16 187.094C222.16 187.094 219.179 177.576 220.834 168.001C221.459 164.387 222.773 162.591 223.237 161.627C223.701 160.662 227.264 154.69 224.128 151.936C220.991 149.183 213.632 154.66 213.962 169.407C214.131 176.975 216.251 183.662 216.251 183.662Z" fill="#FFB701"/>
<path opacity="0.5" d="M216.251 183.662L222.16 187.094C222.16 187.094 219.179 177.576 220.834 168.001C221.459 164.387 222.773 162.591 223.237 161.627C223.701 160.662 227.264 154.69 224.128 151.936C220.991 149.183 213.632 154.66 213.962 169.407C214.131 176.975 216.251 183.662 216.251 183.662Z" fill="black"/>
<path d="M218.998 185.526C218.889 185.526 218.786 185.458 218.746 185.35C218.724 185.288 216.489 179.083 216.607 169.132C216.725 159.12 221.986 153.781 222.04 153.728C222.144 153.625 222.314 153.624 222.418 153.73C222.522 153.834 222.522 154.004 222.417 154.108C222.366 154.159 217.258 159.357 217.143 169.137C217.027 178.983 219.227 185.104 219.25 185.165C219.301 185.304 219.229 185.458 219.09 185.509C219.06 185.521 219.029 185.526 218.998 185.526Z" fill="white"/>
<path d="M220.834 186.344L230.596 192.085C230.596 192.085 235.066 191.426 234.727 187.219C234.389 183.011 232.573 182.02 234.834 180.171C237.095 178.322 237.679 178.199 237.571 176.387C237.463 174.575 236.244 173.785 235.67 173.067C235.097 172.349 233.498 170.842 234.623 168.657C235.748 166.471 237.272 164.36 235.009 163.358C233.658 162.76 231.385 163.509 229.879 165.108C228.373 166.708 227.13 167.857 225.704 168.228C224.276 168.599 221.301 168.629 221.401 171.087C221.501 173.546 222.14 174.395 221.544 175.486C220.42 177.543 215.622 178.651 220.834 186.344Z" fill="#FFB701"/>
<path opacity="0.2" d="M220.834 186.344L230.596 192.085C230.596 192.085 235.066 191.426 234.727 187.219C234.389 183.011 232.573 182.02 234.834 180.171C237.095 178.322 237.679 178.199 237.571 176.387C237.463 174.575 236.244 173.785 235.67 173.067C235.097 172.349 233.498 170.842 234.623 168.657C235.748 166.471 237.272 164.36 235.009 163.358C233.658 162.76 231.385 163.509 229.879 165.108C228.373 166.708 227.13 167.857 225.704 168.228C224.276 168.599 221.301 168.629 221.401 171.087C221.501 173.546 222.14 174.395 221.544 175.486C220.42 177.543 215.622 178.651 220.834 186.344Z" fill="black"/>
<path d="M224.809 188.95C224.671 188.95 224.554 188.843 224.542 188.704C224.53 188.558 223.468 174.001 233.581 164.442C233.689 164.341 233.858 164.346 233.96 164.453C234.062 164.56 234.057 164.73 233.95 164.832C224.027 174.211 225.065 188.516 225.077 188.66C225.088 188.807 224.979 188.937 224.831 188.948C224.824 188.949 224.817 188.95 224.809 188.95Z" fill="white"/>
<path d="M226.56 176.475C226.42 176.475 226.303 176.368 226.292 176.227C226.009 172.408 223.352 170.443 223.325 170.424C223.206 170.337 223.178 170.17 223.265 170.05C223.35 169.93 223.517 169.902 223.639 169.989C223.756 170.074 226.525 172.11 226.828 176.187C226.839 176.334 226.728 176.463 226.581 176.474C226.573 176.475 226.566 176.475 226.56 176.475Z" fill="white"/>
<path d="M225.839 178.959C225.774 178.959 225.711 178.936 225.659 178.89C225.55 178.791 225.541 178.622 225.64 178.512C225.745 178.394 228.29 175.643 234.177 176.452C234.324 176.472 234.426 176.608 234.406 176.753C234.386 176.9 234.251 177.001 234.104 176.983C228.52 176.216 226.063 178.845 226.038 178.871C225.985 178.929 225.912 178.959 225.839 178.959Z" fill="white"/>
<path d="M37.2311 175.301L34.3126 181.48C34.3126 181.48 31.3675 171.95 24.5717 165.005C22.0066 162.383 19.9055 161.65 18.9758 161.12C18.046 160.589 11.7241 157.692 12.7445 153.646C13.7649 149.599 22.9326 149.933 31.0278 162.264C35.1834 168.592 37.2311 175.301 37.2311 175.301Z" fill="#FFB701"/>
<path opacity="0.5" d="M37.2311 175.301L34.3126 181.48C34.3126 181.48 31.3675 171.95 24.5717 165.005C22.0066 162.383 19.9055 161.65 18.9758 161.12C18.046 160.589 11.7241 157.692 12.7445 153.646C13.7649 149.599 22.9326 149.933 31.0278 162.264C35.1834 168.592 37.2311 175.301 37.2311 175.301Z" fill="black"/>
<path d="M35.874 178.442C35.7548 178.442 35.6455 178.361 35.6144 178.24C35.5983 178.178 33.9375 171.888 28.2553 163.848C22.6109 155.859 15.4567 154.477 15.3847 154.464C15.2394 154.438 15.1425 154.298 15.1686 154.152C15.1953 154.007 15.3325 153.911 15.4803 153.936C15.5536 153.949 22.9152 155.36 28.6925 163.538C34.4356 171.666 36.1162 178.043 36.1324 178.107C36.1696 178.25 36.0827 178.396 35.9392 178.433C35.9187 178.439 35.8964 178.442 35.874 178.442Z" fill="white"/>
<path d="M34.979 180.109L30.198 190.376C30.198 190.376 26.1436 192.37 24.0344 188.714C21.9258 185.057 22.8587 183.21 19.9477 182.97C17.0367 182.731 16.4865 182.961 15.5474 181.408C14.6083 179.854 15.1636 178.512 15.2288 177.595C15.2934 176.678 15.7555 174.531 13.5891 173.369C11.4228 172.208 8.96957 171.335 10.2651 169.225C11.0384 167.966 13.3345 167.294 15.4822 167.756C17.6299 168.218 19.3049 168.46 20.6905 167.955C22.0761 167.451 24.5431 165.788 25.8554 167.869C27.1677 169.951 27.1243 171.012 28.2347 171.572C30.3265 172.628 34.9064 170.817 34.979 180.109Z" fill="#FFB701"/>
<path opacity="0.2" d="M34.979 180.109L30.198 190.376C30.198 190.376 26.1436 192.37 24.0344 188.714C21.9258 185.057 22.8587 183.21 19.9477 182.97C17.0367 182.731 16.4865 182.961 15.5474 181.408C14.6083 179.854 15.1636 178.512 15.2288 177.595C15.2934 176.678 15.7555 174.531 13.5891 173.369C11.4228 172.208 8.96957 171.335 10.2651 169.225C11.0384 167.966 13.3345 167.294 15.4822 167.756C17.6299 168.218 19.3049 168.46 20.6905 167.955C22.0761 167.451 24.5431 165.788 25.8554 167.869C27.1677 169.951 27.1243 171.012 28.2347 171.572C30.3265 172.628 34.9064 170.817 34.979 180.109Z" fill="black"/>
<path d="M33.032 184.559C32.9395 184.559 32.8494 184.51 32.7997 184.424C32.7283 184.3 25.4654 171.931 11.9732 169.838C11.8272 169.815 11.7272 169.678 11.7496 169.532C11.7719 169.385 11.9092 169.283 12.0558 169.309C25.8077 171.441 33.1916 184.031 33.2643 184.157C33.3382 184.286 33.2941 184.45 33.1656 184.523C33.1239 184.547 33.078 184.559 33.032 184.559Z" fill="white"/>
<path d="M24.5126 175.28C24.4213 175.28 24.3313 175.232 24.2816 175.147C22.2171 171.618 23.3406 168.37 23.3897 168.234C23.4388 168.094 23.5909 168.021 23.7319 168.071C23.8717 168.121 23.9443 168.275 23.8946 168.414C23.8835 168.445 22.8102 171.571 24.7437 174.876C24.8188 175.004 24.776 175.168 24.648 175.242C24.6058 175.268 24.5592 175.28 24.5126 175.28Z" fill="white"/>
<path d="M18.5596 180C18.487 180 18.4149 179.971 18.3621 179.912C18.2621 179.803 18.2702 179.633 18.3789 179.533C22.7656 175.529 26.4256 176.351 26.5784 176.387C26.7218 176.421 26.8106 176.566 26.7759 176.709C26.7423 176.853 26.6013 176.944 26.4535 176.908C26.4175 176.9 22.9028 176.129 18.7398 179.929C18.6888 179.977 18.6236 180 18.5596 180Z" fill="white"/>
<path d="M35.0474 50.1923C35.0474 46.5106 37.0119 43.1077 40.2005 41.2668L105.736 3.43021C107.672 2.31227 110.02 3.36127 110.638 5.3307C110.283 3.79727 109.326 2.44767 107.942 1.62288L107.708 1.48375C106.077 0.512388 104.215 0 102.317 0V0.00124384C101.74 -0.00683016 101.147 0.134773 100.588 0.457733L35.053 38.2937C31.8644 40.1346 29.8999 43.5369 29.8999 47.2192V188.945C29.8999 191.543 32.7121 193.167 34.9623 191.868L35.0474 191.819V50.1923Z" fill="#37474F"/>
<path d="M105.645 157.004L40.1092 194.84C37.859 196.139 35.0468 194.516 35.0468 191.918V50.1923C35.0468 46.5106 37.0112 43.1077 40.1998 41.2668L105.735 3.43021C107.985 2.13154 110.797 3.75504 110.797 6.353V148.079C110.798 151.761 108.833 155.163 105.645 157.004Z" fill="#455A64"/>
<path d="M35.0474 191.918V50.1923C35.0474 48.621 35.4082 47.1012 36.066 45.7317L30.9986 42.5934C30.2887 44.0058 29.8999 45.5846 29.8999 47.2192V188.65V188.945V190.129C29.8999 191.273 30.5023 192.333 31.4855 192.918L34.0984 194.474C35.0033 195.013 36.0374 195.298 37.0914 195.298H38.3813V195.296C36.6361 195.273 35.0474 193.871 35.0474 191.918Z" fill="#263238"/>
<path d="M103.389 17.0523V136.174C103.389 139.426 101.654 142.43 98.8382 144.056L40.9669 177.468C40.503 177.735 40.0117 177.858 39.5316 177.866C40.2024 179.419 42.1451 180.192 43.7599 179.26L101.631 145.847C104.447 144.221 106.182 141.217 106.182 137.966V20.0248C106.182 18.3572 104.869 17.1504 103.389 17.0523Z" fill="#37474F"/>
<path d="M39.5322 177.866C40.0123 177.858 40.5036 177.736 40.9676 177.468L98.8389 144.056C101.655 142.43 103.389 139.426 103.389 136.175V17.0523C103.662 17.0703 102.521 16.9771 101.713 17.4442L43.8413 50.8563C41.0253 52.4822 39.2906 55.4864 39.2906 58.7377V176.68C39.2906 177.116 39.3813 177.52 39.5403 177.882C39.5378 177.877 39.5347 177.872 39.5322 177.866Z" fill="#FFB701"/>
<g opacity="0.5">
<path d="M39.5322 177.866C40.0123 177.858 40.5036 177.736 40.9676 177.468L98.8389 144.056C101.655 142.43 103.389 139.426 103.389 136.175V17.0523C103.662 17.0703 102.521 16.9771 101.713 17.4442L43.8413 50.8563C41.0253 52.4822 39.2906 55.4864 39.2906 58.7377V176.68C39.2906 177.116 39.3813 177.52 39.5403 177.882C39.5378 177.877 39.5347 177.872 39.5322 177.866Z" fill="white"/>
</g>
<path d="M63.7511 33.3972C63.7511 34.0617 63.2846 34.8697 62.7089 35.202C62.1332 35.5343 61.6667 35.2647 61.6667 34.6002C61.6667 33.9356 62.1332 33.1276 62.7089 32.7953C63.284 32.4631 63.7511 32.7326 63.7511 33.3972Z" fill="#263238"/>
<path d="M67.6279 31.1588C67.6279 31.8233 67.1615 32.6314 66.5857 32.9636C66.01 33.2959 65.5436 33.0264 65.5436 32.3618C65.5436 31.6973 66.01 30.8892 66.5857 30.557C67.1609 30.2247 67.6279 30.4942 67.6279 31.1588Z" fill="#263238"/>
<path d="M83.2759 23.3276L70.6711 30.6054C70.1724 30.893 69.7687 30.5874 69.7687 29.9229C69.7687 29.2583 70.173 28.4863 70.6711 28.1987L83.2759 20.9216C83.7746 20.634 84.1783 20.939 84.1783 21.6035C84.1783 22.2681 83.774 23.0401 83.2759 23.3276Z" fill="#263238"/>
<path d="M81.1431 161.475C81.8958 161.475 82.3827 162.274 82.3827 163.509C82.3827 165.451 81.1679 167.793 79.7301 168.623L73.7013 172.104C73.3796 172.29 73.0771 172.384 72.8032 172.384C72.0505 172.384 71.5636 171.586 71.5636 170.35C71.5636 168.408 72.7784 166.067 74.2162 165.236L80.245 161.756C80.5673 161.569 80.8692 161.475 81.1431 161.475ZM81.1431 160.96C80.789 160.96 80.3984 161.073 79.9879 161.309L73.9591 164.79C72.3517 165.718 71.0493 168.207 71.0493 170.35C71.0493 171.945 71.7716 172.898 72.8039 172.898C73.1579 172.898 73.5485 172.786 73.9591 172.549L79.9879 169.069C81.5952 168.141 82.8976 165.652 82.8976 163.509C82.8976 161.913 82.1753 160.96 81.1431 160.96Z" fill="#263238"/>
<path d="M47.8273 67.0868V200.61C47.8273 203.029 48.716 204.653 50.0743 205.187L50.1122 205.199L50.1184 205.206L55.8888 208.367L55.8572 203.232L55.2162 64.7758L49.1222 61.6592C48.3161 63.3865 47.8273 65.3031 47.8273 67.0868Z" fill="#E6E6E6"/>
<path d="M56.2025 208.894L49.9569 205.471C48.4092 204.832 47.5167 203.027 47.5167 200.61V67.0868C47.5167 65.3311 47.9869 63.3573 48.8409 61.5282L48.9775 61.2363L55.5261 64.5858L55.5268 64.7746L56.1677 203.231L56.2025 208.894ZM50.2681 204.934L55.5752 207.842L55.5466 203.234L54.9063 64.9671L49.2713 62.0847C48.539 63.7486 48.1384 65.5136 48.1384 67.0875V200.611C48.1384 202.791 48.9048 204.394 50.1886 204.899L50.2681 204.936V204.934Z" fill="#E6E6E6"/>
<path d="M49.1222 61.6592L55.2162 64.7758L120.434 26.8348L124.788 24.3021L118.77 20.9123L118.599 20.811V20.8048C117.641 20.2272 116.384 20.2651 115 21.065L53.2673 56.708C51.604 57.667 50.119 59.514 49.1222 61.6592Z" fill="#E0E0E0"/>
<path d="M55.2162 65.087C55.1678 65.087 55.1193 65.0758 55.0752 65.0528L48.9812 61.9362C48.8328 61.8598 48.7707 61.6804 48.8409 61.5288C49.8998 59.2488 51.4568 57.3937 53.112 56.4391L114.845 20.7961C116.274 19.9707 117.664 19.8782 118.76 20.539C118.776 20.5489 118.791 20.5601 118.805 20.5725L118.929 20.6464L124.941 24.0325C125.038 24.0872 125.099 24.1897 125.099 24.3009C125.1 24.412 125.041 24.5157 124.945 24.5716L55.3721 65.0453C55.3243 65.0727 55.2702 65.087 55.2162 65.087ZM49.5334 61.5207L55.2069 64.423L124.163 24.3071L118.441 21.0781C118.424 21.0681 118.409 21.057 118.395 21.0445C117.508 20.5359 116.361 20.6384 115.156 21.334L53.4225 56.9769C51.94 57.8315 50.5333 59.478 49.5334 61.5207Z" fill="#E0E0E0"/>
<path d="M53.807 70.445V203.365C53.807 205.46 54.4734 206.964 55.5398 207.669L55.8888 207.86C56.8155 208.298 57.9775 208.203 59.2408 207.473L89.0817 190.245L120.973 171.049C123.976 169.317 126.413 165.444 126.413 161.445V28.5304C126.413 26.5057 125.791 25.0393 124.788 24.3027C124.617 24.176 124.433 24.0679 124.236 23.9916C123.328 23.604 122.198 23.7189 120.973 24.4232L59.2408 60.6674C57.6409 61.5878 56.2062 62.7387 55.2162 64.7764C54.3405 66.5602 53.807 68.5724 53.807 70.445Z" fill="#FAFAFA"/>
<path d="M120.973 171.049C108.27 178.627 75.2242 198.35 58.8657 208.202C56.7236 209.492 53.9977 207.948 53.9977 205.448V68.7693C53.9977 65.605 55.6752 62.6778 58.4048 61.0779L121.27 24.2344C123.412 22.9792 126.109 24.5238 126.109 27.0069V162.004C126.109 165.713 124.159 169.148 120.973 171.049Z" fill="#FAFAFA"/>
<path d="M120.817 170.781C110.844 176.73 100.874 182.682 90.9064 188.64C85.0055 192.167 79.1053 195.697 73.2082 199.23C70.5133 200.844 67.8197 202.459 65.1267 204.076C63.9485 204.783 62.771 205.491 61.5934 206.199C60.5065 206.852 59.3482 207.782 58.1477 208.2C56.1547 208.892 54.3604 207.298 54.3076 205.33C54.2989 205.013 54.3076 204.694 54.3076 204.377C54.3076 202.84 54.3076 201.302 54.3076 199.765C54.3076 193.78 54.3076 187.794 54.3076 181.808C54.3076 173.238 54.3076 164.669 54.3076 156.098C54.3076 146.469 54.3076 136.84 54.3076 127.211C54.3076 118.143 54.3076 109.075 54.3076 100.007C54.3076 93.0261 54.3076 86.0458 54.3076 79.0649C54.3076 75.7273 54.3001 72.3896 54.3076 69.0519C54.315 65.7683 55.9019 62.9194 58.7396 61.2419C60.1805 60.3904 61.6276 59.5494 63.0722 58.7029C69.8419 54.7355 76.6117 50.768 83.382 46.8C91.4039 42.0991 99.4251 37.3975 107.447 32.6966C112.011 30.0216 116.564 27.3261 121.14 24.671C122.558 23.8487 124.342 23.9295 125.327 25.4132C125.727 26.0157 125.796 26.6852 125.798 27.3752C125.802 28.5664 125.798 29.757 125.798 30.9482C125.798 36.4485 125.798 41.9494 125.798 47.4496C125.798 55.7783 125.798 64.1069 125.798 72.4356C125.798 81.9964 125.798 91.5573 125.798 101.118C125.798 110.342 125.798 119.566 125.798 128.79C125.798 136.019 125.798 143.248 125.798 150.477C125.798 154.146 125.798 157.814 125.798 161.483C125.798 165.299 124.13 168.745 120.817 170.781C120.477 170.989 120.788 171.527 121.13 171.317C124.586 169.193 126.42 165.574 126.42 161.568C126.42 160.296 126.42 159.025 126.42 157.753C126.42 152.058 126.42 146.363 126.42 140.668C126.42 132.14 126.42 123.612 126.42 115.084C126.42 105.319 126.42 95.5545 126.42 85.7899C126.42 76.5763 126.42 67.3626 126.42 58.1489C126.42 51.0674 126.42 43.9859 126.42 36.9044C126.42 33.6586 126.454 30.4116 126.42 27.1659C126.388 24.2127 123.413 22.6413 120.906 24.0878C119.392 24.9604 117.891 25.8548 116.384 26.738C109.428 30.8147 102.471 34.8915 95.5148 38.9682C87.4209 43.712 79.3264 48.4558 71.2325 53.1989C66.939 55.7155 62.6312 58.2098 58.3508 60.7481C55.3777 62.5114 53.6971 65.5751 53.6871 69.0134C53.684 70.1314 53.6871 71.2487 53.6871 72.3666C53.6871 77.7979 53.6871 83.2292 53.6871 88.6612C53.6871 97.0153 53.6871 105.37 53.6871 113.724C53.6871 123.447 53.6871 133.17 53.6871 142.893C53.6871 152.24 53.6871 161.587 53.6871 170.934C53.6871 178.366 53.6871 185.798 53.6871 193.229C53.6871 197.085 53.6871 200.941 53.6871 204.796C53.6871 205.01 53.6803 205.224 53.6871 205.438C53.7604 207.777 56.0106 209.567 58.3129 208.797C59.4855 208.404 60.5922 207.523 61.6481 206.889C62.8486 206.166 64.0498 205.445 65.2509 204.724C67.9359 203.112 70.622 201.502 73.3082 199.892C85.0534 192.855 96.8072 185.833 108.563 178.815C112.752 176.314 116.941 173.815 121.13 171.315C121.473 171.112 121.162 170.575 120.817 170.781Z" fill="#EBEBEB"/>
<path d="M58.4048 61.0779L121.27 24.2344C123.412 22.9792 126.108 24.5238 126.108 27.0069V32.9369L126.09 32.9382L53.9977 74.5602V68.7687C53.9977 65.6049 55.6752 62.6778 58.4048 61.0779Z" fill="#EBEBEB"/>
<path d="M101.593 93.392C107.969 82.3495 107.969 70.4139 101.594 66.7331C95.2186 63.0522 84.882 69.02 78.5065 80.0624C72.1309 91.1049 72.1307 103.04 78.5059 106.721C84.8812 110.402 95.2177 104.434 101.593 93.392Z" fill="#FFB701"/>
<path opacity="0.5" d="M101.593 93.392C107.969 82.3495 107.969 70.4139 101.594 66.7331C95.2186 63.0522 84.882 69.02 78.5065 80.0624C72.1309 91.1049 72.1307 103.04 78.5059 106.721C84.8812 110.402 95.2177 104.434 101.593 93.392Z" fill="white"/>
<path d="M87.1246 86.7973C86.7196 86.7973 86.3917 86.4694 86.3917 86.0645V81.2368C86.3917 79.1034 87.8388 76.5968 89.6865 75.5297C90.7051 74.9416 91.7007 74.8689 92.4901 75.3248C93.2795 75.7807 93.7142 76.6794 93.7142 77.8551V82.6827C93.7142 83.0876 93.3863 83.4156 92.9813 83.4156C92.5764 83.4156 92.2485 83.0876 92.2485 82.6827V77.8551C92.2485 77.234 92.0696 76.7744 91.7572 76.5937C91.4448 76.4135 90.9573 76.4881 90.4194 76.7986C89.0307 77.6004 87.8575 79.6326 87.8575 81.2362V86.0638C87.8575 86.4694 87.5295 86.7973 87.1246 86.7973Z" fill="#37474F"/>
<path d="M95.9707 79.5705C95.6862 79.4338 95.3272 79.4599 94.9359 79.686L85.1707 85.3241C84.7795 85.5502 84.4205 85.9384 84.136 86.4042C83.7516 87.0333 83.5044 87.8035 83.5044 88.509V96.9631C83.5044 97.5755 83.6901 98.022 83.9907 98.2506C84.0435 98.291 84.1012 98.322 84.1615 98.3487C84.4422 98.4723 84.7913 98.4425 85.1714 98.2233L94.9366 92.5858C95.857 92.0541 96.6035 90.6281 96.6035 89.4009V80.9468C96.6029 80.24 96.3551 79.7549 95.9707 79.5705Z" fill="#FFB701"/>
<path d="M91.1636 88.3798L92.1045 91.0865L88.796 92.9963L89.6245 89.6537L89.7413 89.1804C89.1823 89.1966 88.796 88.7643 88.796 88.0035C88.796 87.7122 88.8513 87.4054 88.9507 87.1023C89.2159 86.2999 89.7885 85.521 90.4506 85.1391C91.3642 84.6118 92.1051 85.0378 92.1051 86.0943C92.1051 86.8551 91.7169 87.7345 91.158 88.3649L91.1636 88.3798Z" fill="#455A64"/>
<path d="M89.6238 89.6537L89.7406 89.1804C89.1816 89.1966 88.7953 88.7643 88.7953 88.0035C88.7953 87.7122 88.8506 87.4054 88.9499 87.1023L91.1628 88.3805L92.1038 91.0871L89.6238 89.6537Z" fill="#37474F"/>
<path d="M114.135 117.983L65.972 145.791C63.9796 146.941 62.3641 145.72 62.3641 143.064V135.767C62.3641 133.111 63.9796 130.025 65.972 128.875L114.135 101.068C116.128 99.9176 117.743 101.139 117.743 103.795V111.091C117.742 113.747 116.127 116.833 114.135 117.983Z" fill="#FFB701"/>
<path d="M74.6391 128.217H73.7075V135.939H74.6391V128.217Z" fill="#FAFAFA"/>
<path d="M77.2912 129.743L70.603 133.605L71.0689 134.412L77.7571 130.55L77.2912 129.743Z" fill="#FAFAFA"/>
<path d="M72.0369 130.314L71.571 131.121L76.3004 133.852L76.7662 133.045L72.0369 130.314Z" fill="#FAFAFA"/>
<path d="M76.1402 127.754L71.41 135.945L72.2168 136.41L76.9469 128.219L76.1402 127.754Z" fill="#FAFAFA"/>
<path d="M90.5194 119.567H89.5878V127.29H90.5194V119.567Z" fill="#FAFAFA"/>
<path d="M93.1706 121.093L86.4829 124.955L86.9488 125.762L93.6365 121.9L93.1706 121.093Z" fill="#FAFAFA"/>
<path d="M87.9181 121.666L87.4523 122.473L92.1811 125.203L92.6469 124.396L87.9181 121.666Z" fill="#FAFAFA"/>
<path d="M92.0209 119.104L87.2908 127.295L88.0976 127.761L92.8277 119.57L92.0209 119.104Z" fill="#FAFAFA"/>
<path d="M106.399 110.918H105.467V118.641H106.399V110.918Z" fill="#FAFAFA"/>
<path d="M109.038 112.45L102.35 116.312L102.816 117.118L109.504 113.257L109.038 112.45Z" fill="#FAFAFA"/>
<path d="M103.799 113.016L103.333 113.823L108.062 116.553L108.527 115.747L103.799 113.016Z" fill="#FAFAFA"/>
<path d="M107.889 110.445L103.16 118.636L103.967 119.102L108.696 110.911L107.889 110.445Z" fill="#FAFAFA"/>
<path d="M115.567 128.037C116.212 128.037 116.5 129 116.5 129.955V137.251C116.5 139.47 115.133 142.134 113.514 143.068L65.3509 170.875C65.049 171.049 64.7683 171.141 64.5398 171.141C63.8951 171.141 63.6069 170.178 63.6069 169.224V161.927C63.6069 159.709 64.9745 157.044 66.5937 156.11L114.757 128.303C115.058 128.129 115.338 128.037 115.567 128.037ZM115.567 126.795C115.128 126.795 114.643 126.934 114.135 127.228L65.972 155.034C63.9796 156.185 62.3641 159.271 62.3641 161.927V169.224C62.3641 171.202 63.2591 172.384 64.5391 172.384C64.9782 172.384 65.4627 172.244 65.9713 171.951L114.135 144.144C116.127 142.994 117.742 139.907 117.742 137.251V129.955C117.742 127.977 116.847 126.795 115.567 126.795Z" fill="#FFB701"/>
<path d="M81.7066 160.427C81.0632 160.799 80.5002 160.984 80.0177 160.984C79.5418 160.973 79.1699 160.8 78.9018 160.468C78.6404 160.123 78.5097 159.638 78.5097 159.011C78.5097 158.384 78.6371 157.753 78.8917 157.119C79.1531 156.472 79.5117 155.882 79.9674 155.348C80.4231 154.807 80.9358 154.371 81.5055 154.042C82.0417 153.733 82.5309 153.578 82.9733 153.578C83.4156 153.57 83.7675 153.735 84.0288 154.071C84.2902 154.408 84.4209 154.925 84.4209 155.621C84.4209 155.698 84.4176 155.789 84.4109 155.894C84.4042 155.998 84.3974 156.095 84.3907 156.184L80.078 158.674V157.513L83.3754 155.609L82.6516 156.352C82.6583 156.062 82.6114 155.842 82.5108 155.691C82.417 155.536 82.283 155.451 82.1087 155.435C81.9412 155.416 81.7434 155.472 81.5156 155.604C81.2877 155.735 81.0866 155.909 80.9124 156.126C80.7448 156.339 80.6142 156.581 80.5203 156.852C80.4265 157.115 80.3796 157.389 80.3796 157.676V158.012C80.3796 158.322 80.4332 158.558 80.5404 158.721C80.6544 158.879 80.8152 158.961 81.023 158.964C81.2307 158.961 81.4787 158.875 81.7669 158.709C82.035 158.554 82.2629 158.38 82.4505 158.187C82.6449 157.982 82.8359 157.732 83.0235 157.438L84.0288 158.065C83.7675 158.548 83.4458 158.99 83.0637 159.388C82.6817 159.779 82.2293 160.125 81.7066 160.427ZM88.8503 149.802C89.2725 149.558 89.6545 149.438 89.9963 149.442C90.3381 149.438 90.6062 149.585 90.8006 149.883C91.0016 150.177 91.1022 150.649 91.1022 151.299V154.898L89.1921 156.001V152.762C89.1921 152.313 89.1117 152.034 88.9508 151.926C88.7967 151.806 88.5789 151.827 88.2974 151.99C88.0963 152.106 87.912 152.267 87.7445 152.472C87.5769 152.669 87.4462 152.903 87.3524 153.174C87.2586 153.445 87.2116 153.754 87.2116 154.103V157.144L85.3016 158.247V151.955L87.1212 150.905V152.692L86.7693 152.373C86.9771 151.796 87.2619 151.291 87.6238 150.858C87.9857 150.417 88.3946 150.065 88.8503 149.802ZM94.7342 152.905C94.0372 153.308 93.4944 153.424 93.1056 153.254C92.7169 153.076 92.5226 152.584 92.5226 151.779V146.381L94.4326 145.278V150.653C94.4326 150.878 94.4863 151.025 94.5935 151.094C94.7007 151.156 94.8381 151.139 95.0057 151.042C95.2335 150.911 95.4279 150.733 95.5887 150.508L96.0612 151.779C95.9004 151.996 95.7027 152.199 95.4681 152.389C95.2335 152.586 94.9889 152.758 94.7342 152.905ZM91.7284 150.125V148.477L95.6792 146.196V147.844L91.7284 150.125ZM81.7066 174.427C81.0632 174.799 80.5002 174.984 80.0177 174.984C79.5418 174.973 79.1699 174.8 78.9018 174.468C78.6404 174.123 78.5097 173.638 78.5097 173.011C78.5097 172.384 78.6371 171.753 78.8917 171.119C79.1531 170.472 79.5117 169.882 79.9674 169.348C80.4231 168.807 80.9358 168.371 81.5055 168.042C82.0417 167.733 82.5309 167.578 82.9733 167.578C83.4156 167.57 83.7675 167.735 84.0288 168.071C84.2902 168.408 84.4209 168.925 84.4209 169.621C84.4209 169.698 84.4176 169.789 84.4109 169.894C84.4042 169.998 84.3974 170.095 84.3907 170.184L80.078 172.674V171.513L83.3754 169.609L82.6516 170.352C82.6583 170.062 82.6114 169.842 82.5108 169.691C82.417 169.536 82.283 169.451 82.1087 169.435C81.9412 169.416 81.7434 169.472 81.5156 169.604C81.2877 169.735 81.0866 169.909 80.9124 170.126C80.7448 170.339 80.6142 170.581 80.5203 170.852C80.4265 171.115 80.3796 171.389 80.3796 171.676V172.012C80.3796 172.322 80.4332 172.558 80.5404 172.721C80.6544 172.879 80.8152 172.961 81.023 172.964C81.2307 172.961 81.4787 172.875 81.7669 172.709C82.035 172.554 82.2629 172.38 82.4505 172.187C82.6449 171.982 82.8359 171.732 83.0235 171.438L84.0288 172.065C83.7675 172.548 83.4458 172.99 83.0637 173.388C82.6817 173.779 82.2293 174.125 81.7066 174.427ZM85.3016 172.247V165.955L87.1212 164.905V166.739L86.8497 166.373C87.0106 165.808 87.272 165.305 87.6339 164.864C87.9958 164.415 88.4348 164.042 88.9508 163.744V165.729C88.8637 165.764 88.7866 165.8 88.7196 165.839C88.6593 165.866 88.5923 165.901 88.5185 165.943C88.1298 166.168 87.8148 166.474 87.5736 166.861C87.3323 167.24 87.2116 167.704 87.2116 168.254V171.144L85.3016 172.247Z" fill="#FFB701"/>
<path d="M186.455 45.1026C186.455 46.0007 187.098 47.0931 187.891 47.5422C188.683 47.9912 189.326 47.6273 189.326 46.7292C189.326 45.8311 188.683 44.7386 187.891 44.2896C187.098 43.8399 186.455 44.2039 186.455 45.1026Z" fill="#455A64"/>
<path d="M167.218 50.8879C166.118 50.8879 164.903 50.5295 163.649 49.8184L159.096 47.2385C158.947 47.154 158.894 46.9646 158.978 46.8149C159.063 46.6652 159.254 46.6137 159.401 46.6981L163.955 49.2781C165.919 50.391 167.744 50.5699 169.093 49.7836C170.412 49.0141 171.14 47.3919 171.14 45.2156C171.14 42.8089 171.976 40.9954 173.495 40.1104C175.044 39.2079 177.088 39.3868 179.251 40.6122L186.61 44.7815C186.759 44.8659 186.812 45.0554 186.727 45.2051C186.642 45.3541 186.451 45.4057 186.304 45.3224L178.945 41.1531C176.981 40.0408 175.157 39.8613 173.808 40.6476C172.487 41.4171 171.76 43.0394 171.76 45.2162C171.76 47.6229 170.924 49.4358 169.404 50.3209C168.755 50.6991 168.016 50.8879 167.218 50.8879Z" fill="#455A64"/>
<path d="M157.216 45.8454C157.216 46.5721 157.736 47.4552 158.377 47.8186C159.018 48.1819 159.538 47.8875 159.538 47.1608C159.538 46.4348 159.018 45.551 158.377 45.1883C157.736 44.825 157.216 45.1194 157.216 45.8454Z" fill="#455A64"/>
<path d="M186.455 99.389C186.455 100.287 187.098 101.38 187.891 101.829C188.683 102.278 189.326 101.914 189.326 101.016C189.326 100.118 188.683 99.0251 187.891 98.576C187.098 98.1264 186.455 98.491 186.455 99.389Z" fill="#455A64"/>
<path d="M186.511 100.069C186.459 100.069 186.406 100.055 186.358 100.028L178.999 95.8589C174.695 93.4199 171.194 87.4675 171.194 82.5889C171.194 77.9104 167.834 72.1996 163.704 69.8593L159.095 67.2477C158.946 67.1632 158.893 66.9738 158.978 66.8241C159.062 66.6745 159.253 66.6223 159.401 66.7068L164.01 69.3184C168.314 71.7574 171.815 77.7097 171.815 82.5883C171.815 87.2669 175.174 92.9771 179.304 95.3179L186.664 99.4872C186.813 99.5717 186.865 99.7611 186.78 99.9108C186.724 100.012 186.619 100.069 186.511 100.069Z" fill="#455A64"/>
<path d="M157.216 65.7416C157.216 66.4676 157.736 67.3514 158.377 67.7147C159.018 68.0781 159.538 67.7837 159.538 67.057C159.538 66.3304 159.018 65.4472 158.377 65.0839C157.736 64.7205 157.216 65.0149 157.216 65.7416Z" fill="#455A64"/>
<path d="M230.678 39.2483L200.258 22.019C199.387 21.5159 198.604 21.5538 198.048 22.0147L195.42 23.8319L197.212 26.0479V58.111C197.212 60.3537 198.576 62.9592 200.258 63.9305L229.923 80.7238L230.062 83.1119L232.832 81.2138C233.383 80.7971 233.724 79.9785 233.724 78.8575V45.0672C233.723 42.8251 232.36 40.2197 230.678 39.2483Z" fill="#FFB701"/>
<path opacity="0.3" d="M230.678 39.2483L200.258 22.019C199.387 21.5159 198.604 21.5538 198.048 22.0147L195.42 23.8319L197.212 26.0479V58.111C197.212 60.3537 198.576 62.9592 200.258 63.9305L229.923 80.7238L230.062 83.1119L232.832 81.2138C233.383 80.7971 233.724 79.9785 233.724 78.8575V45.0672C233.723 42.8251 232.36 40.2197 230.678 39.2483Z" fill="black"/>
<path d="M228.092 82.9404L197.672 65.7112C195.99 64.7398 194.626 62.1344 194.626 59.8917V26.1014C194.626 23.8587 195.99 22.8277 197.672 23.799L228.092 41.0283C229.774 41.9997 231.137 44.6051 231.137 46.8478V80.6381C231.137 82.8808 229.774 83.9118 228.092 82.9404Z" fill="#FFB701"/>
<path d="M221.7 53.7008C221.562 53.7008 221.437 53.6095 221.4 53.4704C220.765 51.1041 219.734 48.7589 218.421 46.6882C218.329 46.5435 218.372 46.3516 218.516 46.2597C218.66 46.1677 218.852 46.21 218.944 46.3553C220.292 48.4788 221.348 50.8836 221.999 53.3095C222.044 53.4753 221.945 53.6449 221.78 53.6896C221.753 53.6971 221.726 53.7008 221.7 53.7008Z" fill="white"/>
<path d="M222.398 60.0121C222.391 60.0121 222.385 60.0115 222.377 60.0115C222.206 60.0004 222.077 59.8525 222.088 59.6811C222.109 59.347 222.121 59.0023 222.121 58.6476C222.121 57.6266 222.027 56.5602 221.841 55.4771C221.812 55.3081 221.926 55.1473 222.094 55.1187C222.265 55.0907 222.424 55.2032 222.453 55.3721C222.645 56.4894 222.742 57.5918 222.742 58.647C222.742 59.0153 222.731 59.3731 222.707 59.7209C222.696 59.8867 222.56 60.0121 222.398 60.0121Z" fill="white"/>
<path d="M203.401 49.706C203.242 49.706 203.106 49.5843 203.092 49.4222C203.045 48.8837 203.021 48.3465 203.021 47.8254C203.021 44.8125 203.834 42.3239 205.308 40.8172C205.427 40.6948 205.624 40.6923 205.747 40.8122C205.87 40.9321 205.872 41.1289 205.752 41.2513C204.392 42.6413 203.643 44.9759 203.643 47.8248C203.643 48.3278 203.666 48.8464 203.711 49.3675C203.726 49.5383 203.599 49.6892 203.429 49.7041C203.419 49.706 203.41 49.706 203.401 49.706Z" fill="white"/>
<path d="M217.135 44.6821C217.045 44.6821 216.956 44.643 216.895 44.5678C215.591 42.9735 214.19 41.745 212.729 40.9165C210.665 39.7477 208.73 39.5228 207.132 40.265C206.978 40.3377 206.792 40.2706 206.72 40.1141C206.648 39.9588 206.715 39.7737 206.87 39.7011C208.657 38.8713 210.788 39.1036 213.034 40.3756C214.563 41.242 216.023 42.5202 217.375 44.1741C217.484 44.307 217.464 44.5026 217.331 44.6113C217.274 44.6591 217.204 44.6821 217.135 44.6821Z" fill="white"/>
<path d="M205.542 49.9439C205.376 49.9439 205.238 49.8135 205.231 49.6464C205.223 49.4532 205.219 49.2619 205.219 49.0713C205.219 46.8652 205.76 45.0647 206.782 43.8654C206.894 43.7343 207.09 43.7188 207.22 43.8306C207.35 43.9418 207.366 44.1381 207.255 44.2685C206.33 45.3541 205.841 47.0149 205.841 49.0713C205.841 49.2532 205.845 49.4365 205.853 49.6203C205.86 49.7917 205.727 49.9364 205.555 49.9433C205.55 49.9439 205.546 49.9439 205.542 49.9439Z" fill="white"/>
<path d="M207.978 43.548C207.874 43.548 207.772 43.4959 207.713 43.4002C207.623 43.2543 207.669 43.063 207.815 42.9729C208.593 42.4953 209.484 42.3015 210.452 42.3984C210.623 42.4152 210.747 42.5673 210.731 42.7381C210.714 42.9089 210.56 43.0307 210.391 43.0164C209.554 42.9332 208.799 43.0971 208.14 43.5021C208.09 43.5331 208.034 43.548 207.978 43.548Z" fill="white"/>
<path d="M221.699 64.0075C221.577 64.0075 221.46 63.9342 221.411 63.8131L221.047 62.9126C220.308 61.081 219.919 59.1836 219.923 57.4247C219.923 52.158 216.695 46.0628 212.729 43.8151C212.58 43.7306 212.527 43.5412 212.612 43.3915C212.697 43.2418 212.888 43.1897 213.035 43.2747C217.176 45.6206 220.544 51.958 220.544 57.4024C220.541 59.106 220.915 60.922 221.624 62.6803L221.988 63.5809C222.053 63.7398 221.975 63.9212 221.817 63.9852C221.778 64.0007 221.738 64.0075 221.699 64.0075Z" fill="white"/>
<path d="M207.441 60.4382C207.315 60.4382 207.196 60.3606 207.15 60.2345C205.583 55.9584 205.223 51.2103 205.22 51.1624C205.208 50.9916 205.337 50.8426 205.507 50.8301C205.656 50.8171 205.827 50.9457 205.84 51.1171C205.843 51.1637 206.197 55.828 207.733 60.0202C207.792 60.1811 207.71 60.3593 207.548 60.419C207.513 60.4326 207.477 60.4382 207.441 60.4382Z" fill="white"/>
<path d="M219.872 66.1024C219.746 66.1024 219.627 66.0254 219.58 65.9L218.752 63.669C217.879 61.3139 217.417 58.9532 217.417 56.8415V54.3995C217.417 51.5022 215.335 47.9657 212.778 46.5168C211.583 45.8398 210.48 45.7268 209.672 46.1988C208.88 46.6596 208.444 47.6415 208.444 48.9644V51.1202C208.444 54.2833 209.162 57.8253 210.522 61.3636L211.547 64.0361C211.609 64.1963 211.529 64.3758 211.368 64.4373C211.209 64.4982 211.029 64.4187 210.967 64.2584L209.942 61.586C208.556 57.9775 207.823 54.3585 207.823 51.1196V48.9638C207.823 47.4111 208.369 46.2385 209.359 45.6616C210.368 45.0734 211.691 45.1864 213.083 45.9758C215.815 47.5235 218.038 51.3022 218.038 54.3995V56.8415C218.038 58.8799 218.487 61.1661 219.335 63.4529L220.163 65.6838C220.223 65.8447 220.141 66.0229 219.98 66.0832C219.944 66.0962 219.908 66.1024 219.872 66.1024Z" fill="white"/>
<path d="M217.135 66.9918C217.001 66.9918 216.877 66.9042 216.838 66.7695L216.405 65.3087C215.583 62.5343 215.166 59.8637 215.166 57.372V53.5939C215.166 52.0369 214.047 50.1358 212.672 49.357C212.057 49.0085 211.495 48.9452 211.093 49.1806C210.7 49.4098 210.484 49.9097 210.484 50.5892C210.484 54.7827 211.762 59.6221 214.081 64.215L214.953 65.9434C215.03 66.0968 214.969 66.2832 214.816 66.3608C214.663 66.4372 214.476 66.3763 214.399 66.2235L213.526 64.4951C211.164 59.8165 209.863 54.8783 209.863 50.5886C209.863 49.6787 210.188 48.988 210.781 48.6433C211.382 48.2931 212.164 48.3545 212.978 48.816C214.527 49.6936 215.787 51.8369 215.787 53.5933V57.3713C215.787 59.8041 216.195 62.4145 217 65.1317L217.433 66.5925C217.482 66.757 217.389 66.9297 217.224 66.9788C217.194 66.9881 217.164 66.9918 217.135 66.9918Z" fill="white"/>
<path d="M213.653 60.4382C213.511 60.4382 213.381 60.3388 213.35 60.1929L213.065 58.8644C212.791 57.59 212.652 56.2826 212.652 54.9796V51.4792C212.652 51.3078 212.791 51.1686 212.963 51.1686C213.134 51.1686 213.273 51.3078 213.273 51.4792V54.9796C213.273 56.2391 213.407 57.503 213.673 58.734L213.958 60.0625C213.994 60.2302 213.888 60.3954 213.72 60.4314C213.697 60.4363 213.675 60.4382 213.653 60.4382Z" fill="white"/>
<path d="M204.075 53.7008C203.917 53.7008 203.782 53.5815 203.766 53.4207L203.586 51.604C203.569 51.4338 203.693 51.281 203.863 51.2643C204.048 51.2531 204.186 51.3717 204.203 51.5425L204.384 53.3592C204.401 53.5293 204.276 53.6815 204.106 53.6989C204.095 53.7001 204.084 53.7008 204.075 53.7008Z" fill="white"/>
<path d="M230.678 96.7923L200.258 79.563C199.387 79.06 198.604 79.0978 198.048 79.5587L195.42 81.376L197.212 83.592V115.656C197.212 117.898 198.576 120.504 200.258 121.475L229.923 138.268L230.062 140.656L232.832 138.758C233.383 138.342 233.724 137.523 233.724 136.402V102.612C233.723 100.368 232.36 97.7631 230.678 96.7923Z" fill="#FFB701"/>
<path opacity="0.3" d="M230.678 96.7923L200.258 79.563C199.387 79.06 198.604 79.0978 198.048 79.5587L195.42 81.376L197.212 83.592V115.656C197.212 117.898 198.576 120.504 200.258 121.475L229.923 138.268L230.062 140.656L232.832 138.758C233.383 138.342 233.724 137.523 233.724 136.402V102.612C233.723 100.368 232.36 97.7631 230.678 96.7923Z" fill="black"/>
<path d="M228.092 140.484L197.672 123.255C195.99 122.284 194.626 119.679 194.626 117.436V83.6453C194.626 81.4026 195.99 80.3716 197.672 81.343L228.092 98.5723C229.774 99.5437 231.137 102.149 231.137 104.392V138.182C231.137 140.425 229.774 141.455 228.092 140.484Z" fill="#FFB701"/>
<path d="M201.397 93.0733C201.226 93.0733 201.087 92.9342 201.087 92.7628V90.6679C201.087 90.2443 201.307 89.8636 201.676 89.6481C202.053 89.4282 202.506 89.4251 202.885 89.6406L205.081 90.8846C205.23 90.9691 205.283 91.1585 205.198 91.3082C205.112 91.4579 204.922 91.5088 204.775 91.4256L202.579 90.1816C202.393 90.0766 202.174 90.0778 201.988 90.1853C201.81 90.2896 201.707 90.4654 201.707 90.6685V92.7634C201.708 92.9342 201.569 93.0733 201.397 93.0733Z" fill="white"/>
<path d="M204.929 121.877C204.876 121.877 204.824 121.864 204.776 121.837L202.724 120.674C201.714 120.102 201.087 119.034 201.087 117.888V115.957C201.087 115.785 201.226 115.646 201.397 115.646C201.569 115.646 201.708 115.785 201.708 115.957V117.888C201.708 118.811 202.214 119.672 203.03 120.134L205.081 121.296C205.23 121.381 205.283 121.57 205.198 121.72C205.142 121.82 205.037 121.877 204.929 121.877Z" fill="white"/>
<path d="M223.475 132.253C223.27 132.253 223.065 132.2 222.877 132.093L220.682 130.849C220.533 130.765 220.48 130.575 220.564 130.426C220.649 130.276 220.839 130.225 220.987 130.308L223.183 131.552C223.37 131.657 223.59 131.656 223.773 131.548C223.952 131.445 224.055 131.268 224.055 131.066V128.971C224.055 128.8 224.194 128.66 224.365 128.66C224.537 128.66 224.676 128.8 224.676 128.971V131.066C224.676 131.489 224.456 131.87 224.086 132.085C223.896 132.197 223.686 132.253 223.475 132.253Z" fill="white"/>
<path d="M224.366 106.087C224.194 106.087 224.055 105.948 224.055 105.777V103.846C224.055 102.923 223.549 102.062 222.733 101.6L220.682 100.437C220.533 100.353 220.48 100.164 220.564 100.014C220.649 99.8648 220.839 99.812 220.987 99.8965L223.039 101.059C224.049 101.631 224.676 102.699 224.676 103.845V105.776C224.676 105.949 224.537 106.087 224.366 106.087Z" fill="white"/>
<path d="M204.152 103.522C204.198 107.193 204.792 110.729 205.65 113.958C208.015 122.86 217.322 128.334 219.881 122.304C220.9 119.901 221.613 116.834 221.613 112.955C221.613 107.489 217.704 100.844 212.88 98.1109C207.964 95.3253 204.08 97.9109 204.152 103.522Z" fill="white"/>
<path d="M212.57 108.496V114.348L210.028 112.445L212.57 108.496Z" fill="#E0E0E0"/>
<path d="M207.842 105.002C207.842 105.526 208.217 106.163 208.68 106.426C209.143 106.688 209.518 106.476 209.518 105.951C209.518 105.427 209.143 104.79 208.68 104.527C208.217 104.265 207.842 104.478 207.842 105.002Z" fill="#E0E0E0"/>
<path d="M215.624 109.457C215.624 109.981 215.999 110.619 216.461 110.881C216.924 111.144 217.299 110.931 217.299 110.407C217.299 109.883 216.924 109.246 216.461 108.983C215.998 108.721 215.624 108.933 215.624 109.457Z" fill="#E0E0E0"/>
<path d="M211.733 117.211L214.571 116.73C214.571 116.73 213.967 119.763 211.733 117.211Z" fill="#E0E0E0"/>
<path d="M165.952 122.671C165.952 122.671 170.479 122.366 173.047 128.659C174.643 132.57 176.587 138.614 177.829 142.629C178.601 145.123 177.804 147.835 175.804 149.514L167.911 156.137L165.086 151C165.086 151 168.131 146.937 170.479 144.837L165.086 128.658L165.952 122.671Z" fill="#FFA8A7"/>
<path d="M168.039 141.884C168.039 141.884 175.23 142.835 177.027 137.287C177.027 137.287 173.946 129.172 172.533 126.475C171.121 123.779 168.231 121.82 165.952 122.671C163.673 123.522 168.039 141.884 168.039 141.884Z" fill="#FFB701"/>
<path opacity="0.4" d="M168.039 141.884C168.039 141.884 175.23 142.835 177.027 137.287C177.027 137.287 173.946 129.172 172.533 126.475C171.121 123.779 168.231 121.82 165.952 122.671C163.673 123.522 168.039 141.884 168.039 141.884Z" fill="white"/>
<path d="M163.241 214.712C163.241 214.712 159.822 211.785 158.495 211.647C157.168 211.51 154.868 213.785 156.811 217.731C157.351 218.83 159.547 220.019 160.92 222.123C162.292 224.227 163.527 225.809 165.632 225.522C167.736 225.234 168.011 224.045 167.873 222.672C167.736 221.3 167.119 218.944 167.119 218.944L163.241 214.712Z" fill="#37474F"/>
<path d="M165.744 224.891C163.575 225.188 162.302 223.557 160.887 221.388C159.472 219.22 157.209 217.994 156.652 216.861C156.406 216.364 156.229 215.892 156.105 215.448C156.184 216.13 156.397 216.89 156.811 217.731C157.351 218.829 159.547 220.018 160.92 222.122C162.292 224.227 163.527 225.809 165.632 225.521C167.244 225.301 167.778 224.55 167.88 223.594C167.601 224.238 166.99 224.721 165.744 224.891Z" fill="#263238"/>
<path d="M161.417 218.474C161.365 218.474 161.311 218.461 161.261 218.435C161.1 218.349 161.039 218.148 161.125 217.987C161.169 217.904 162.236 215.944 164.339 215.467C164.521 215.425 164.696 215.538 164.737 215.717C164.777 215.896 164.666 216.074 164.487 216.114C162.685 216.523 161.72 218.282 161.71 218.3C161.651 218.41 161.537 218.474 161.417 218.474Z" fill="#EBEBEB"/>
<path d="M160.141 217.298C160.088 217.298 160.035 217.286 159.985 217.259C159.824 217.173 159.763 216.972 159.848 216.81C159.892 216.727 160.959 214.768 163.063 214.291C163.244 214.249 163.42 214.362 163.461 214.541C163.501 214.72 163.389 214.898 163.21 214.938C161.408 215.347 160.444 217.105 160.434 217.123C160.374 217.234 160.26 217.298 160.141 217.298Z" fill="#EBEBEB"/>
<path d="M158.682 216.122C158.629 216.122 158.576 216.109 158.526 216.083C158.365 215.996 158.304 215.796 158.39 215.634C158.434 215.551 159.5 213.592 161.604 213.114C161.784 213.072 161.96 213.186 162.001 213.365C162.042 213.544 161.93 213.721 161.751 213.762C159.949 214.171 158.985 215.929 158.975 215.947C158.916 216.058 158.801 216.122 158.682 216.122Z" fill="#EBEBEB"/>
<path d="M145.055 224.309C145.055 224.309 140.475 222.823 139.109 223.233C137.742 223.643 136.406 226.835 139.947 229.933C140.932 230.795 143.589 231.067 145.809 232.581C148.029 234.095 149.899 235.149 151.859 234C153.819 232.851 153.659 231.529 153.31 230.096C152.866 228.27 152.509 226.943 152.509 226.943L145.055 224.309Z" fill="#37474F"/>
<path d="M151.711 233.332C149.691 234.516 147.764 233.43 145.476 231.869C143.187 230.308 140.448 230.028 139.432 229.14C138.986 228.749 138.617 228.358 138.312 227.969C138.67 228.61 139.193 229.274 139.947 229.934C140.932 230.796 143.59 231.068 145.81 232.581C148.03 234.096 149.899 235.15 151.86 234.001C153.361 233.121 153.58 232.159 153.288 231.173C153.277 231.922 152.872 232.651 151.711 233.332Z" fill="#263238"/>
<path d="M143.963 228.536C143.951 228.536 143.941 228.536 143.93 228.534C143.748 228.517 143.614 228.355 143.632 228.173C143.641 228.073 143.887 225.71 145.761 224.381C145.909 224.275 146.116 224.309 146.223 224.459C146.329 224.609 146.294 224.815 146.145 224.922C144.524 226.073 144.295 228.215 144.293 228.237C144.276 228.408 144.131 228.536 143.963 228.536Z" fill="#EBEBEB"/>
<path d="M145.854 229.156C145.842 229.156 145.832 229.155 145.821 229.154C145.638 229.136 145.505 228.974 145.523 228.792C145.533 228.692 145.779 226.33 147.652 225C147.8 224.894 148.008 224.929 148.114 225.078C148.221 225.228 148.185 225.435 148.036 225.541C146.416 226.692 146.185 228.834 146.183 228.856C146.167 229.027 146.022 229.156 145.854 229.156Z" fill="#EBEBEB"/>
<path d="M142.218 227.9C142.207 227.9 142.196 227.899 142.185 227.898C142.003 227.881 141.87 227.718 141.887 227.536C141.897 227.436 142.143 225.074 144.016 223.744C144.164 223.638 144.372 223.673 144.479 223.822C144.585 223.972 144.549 224.179 144.4 224.285C142.779 225.437 142.55 227.579 142.548 227.6C142.531 227.772 142.386 227.9 142.218 227.9Z" fill="#EBEBEB"/>
<path d="M167.332 215.585C167.742 211.05 168.631 203.945 169.001 200.623C169.661 194.688 169.056 190.161 168.643 188.008C168.453 187.022 168.401 186.026 168.5 185.027C169.398 175.995 169.988 161.358 169.489 158.141L156.811 160.823C156.811 160.823 158.363 181.36 159.044 188.191C159.729 195.068 162.278 215.644 162.278 215.644C163.338 216.268 165.262 216.951 167.332 215.585Z" fill="#455A64"/>
<path d="M165.505 220.247C166.603 220.076 167.118 218.944 167.118 218.944C167.118 218.229 167.201 217.036 167.332 215.585C165.262 216.951 163.338 216.268 162.277 215.644L162.726 219.459C163.241 220.042 164.408 220.419 165.505 220.247Z" fill="#FFA8A7"/>
<path d="M153.07 223.553C153.587 216.691 154.586 203.388 154.72 201.3C154.854 199.192 154.62 196.289 154.282 194.397C154.062 193.165 154.08 191.905 154.303 190.674L159.874 159.761L144.554 159.537L143.552 191.923C143.539 192.341 143.555 192.76 143.6 193.177L146.849 223.361C146.849 223.361 150.017 226.019 153.07 223.553Z" fill="#455A64"/>
<path d="M150.515 229.221C151.617 229.118 152.607 228.188 152.761 227.643C152.761 227.643 152.885 226.006 153.07 223.553C150.018 226.019 146.849 223.361 146.849 223.361L147.336 227.887C147.336 227.887 148.056 229.452 150.515 229.221Z" fill="#FFA8A7"/>
<path d="M151.633 124.73L148.019 125.965L144.13 144.355L144.318 160.662C144.318 160.662 147.095 162.875 157.941 162.875C164.03 162.875 167.993 160.582 169.488 158.141L168.513 148.289C168.513 148.289 169.488 138.582 169.488 133.783C169.488 128.985 169.702 125.05 165.951 122.671L162.612 122.946L151.633 124.73Z" fill="#FFB701"/>
<path opacity="0.2" d="M151.633 124.73L148.019 125.965L144.13 144.355L144.318 160.662C144.318 160.662 147.095 162.875 157.941 162.875C164.03 162.875 167.993 160.582 169.488 158.141L168.513 148.289C168.513 148.289 169.488 138.582 169.488 133.783C169.488 128.985 169.702 125.05 165.951 122.671L162.612 122.946L151.633 124.73Z" fill="white"/>
<path d="M147.708 108.926L145.898 112.508C145.787 112.729 145.897 112.998 146.133 113.076L148.28 113.792L147.708 108.926Z" fill="#F28F8F"/>
<path d="M150.215 102.918C150.215 102.918 147.47 104.397 147.47 112.882C147.47 117.548 147.791 120.521 150.215 120.339C152.64 120.155 159.615 119.241 159.615 119.241V102.918H150.215Z" fill="#FFA8A7"/>
<path d="M150.215 120.338C151.067 120.274 152.482 120.119 153.958 119.945V119.08C152.6 119.776 150.178 120.264 149.81 120.335C149.938 120.347 150.072 120.349 150.215 120.338Z" fill="#F28F8F"/>
<path d="M153.543 118.718V124.044H160.828V116.561L153.543 118.718Z" fill="#FFA8A7"/>
<path d="M153.543 122.015C153.543 122.015 156.162 122.946 158.266 122.58C160.37 122.214 160.828 120.933 160.828 120.933C160.828 120.933 161.514 120.881 162.612 122.946C162.612 122.946 161.326 125.516 158.358 125.69C154.469 125.919 151.633 124.73 151.633 124.73C151.633 124.73 152.645 121.751 153.543 122.015Z" fill="#FFB701"/>
<path opacity="0.4" d="M153.543 122.015C153.543 122.015 156.162 122.946 158.266 122.58C160.37 122.214 160.828 120.933 160.828 120.933C160.828 120.933 161.514 120.881 162.612 122.946C162.612 122.946 161.326 125.516 158.358 125.69C154.469 125.919 151.633 124.73 151.633 124.73C151.633 124.73 152.645 121.751 153.543 122.015Z" fill="white"/>
<path d="M137.292 137.814L135.335 140.825C135.335 140.825 130.584 138.706 127.246 137.422C123.907 136.138 121.917 134.354 121.917 134.354C121.917 134.354 122.174 131.806 122.559 130.505C122.944 129.204 123.073 128.113 121.917 128.691C120.761 129.268 119.991 131.515 119.927 131.773C119.927 131.773 113.25 125.064 112.415 125.208C111.58 125.353 111.773 126.363 113.571 128.434C115.368 130.505 115.368 130.505 115.368 130.505C115.368 130.505 111.272 132.864 111.94 135.432C112.607 138 118 139.156 118 139.156C118 139.156 133.791 151.29 137.292 149.107C140.792 146.924 145.736 140.633 145.736 140.633L137.292 137.814Z" fill="#FFA8A7"/>
<path d="M149.452 125.497C149.452 125.497 152.367 127.893 150.468 132.848C148.568 137.803 143.72 143.79 143.72 143.79C143.72 143.79 138.636 142.21 136.675 138.103L143.084 128.075C144.01 126.626 145.564 125.705 147.28 125.592C147.884 125.553 148.603 125.518 149.452 125.497Z" fill="#FFB701"/>
<path opacity="0.4" d="M149.452 125.497C149.452 125.497 152.367 127.893 150.468 132.848C148.568 137.803 143.72 143.79 143.72 143.79C143.72 143.79 138.636 142.21 136.675 138.103L143.084 128.075C144.01 126.626 145.564 125.705 147.28 125.592C147.884 125.553 148.603 125.518 149.452 125.497Z" fill="white"/>
<path d="M149.163 97.9227C149.163 97.9227 146.284 97.5401 145.549 99.5238C145.091 100.759 146.556 101.72 146.556 101.72C146.556 101.72 144.698 103.468 147.47 104.007C147.47 104.007 147.242 106.386 149.712 106.066C149.712 106.066 149.391 107.952 151.816 108.61C151.816 108.61 150.591 111.876 152.896 111.921H155.054L154.184 114.437C154.184 114.437 155.796 118.326 160.829 118.326C160.829 118.326 162.11 115.672 162.704 114.895C163.299 114.117 166.41 110.137 166.41 106.981C166.41 103.825 165.195 101.955 163.515 101.54C163.515 101.54 162.796 99.799 161.103 98.6549C159.411 97.5115 155.843 96.4911 153.83 97.8935C153.83 97.8935 152.045 95.5539 150.811 95.5539C149.575 95.5533 149.163 96.8246 149.163 97.9227Z" fill="#263238"/>
<path d="M152.896 111.921C152.896 111.921 152.686 108.61 155.476 108.61C158.267 108.61 157.604 114.437 154.184 114.437L152.896 111.921Z" fill="#FFA8A7"/>
</svg>
