<svg width="259" height="264" viewBox="0 0 259 264" fill="none" xmlns="http://www.w3.org/2000/svg">
<path opacity="0.41" d="M95.5457 184.551C93.0099 184.54 90.471 184.439 87.9296 184.23C60.0764 181.947 27.8096 168.647 13.941 144.432C1.81634 123.262 -2.94411 95.8538 2.57639 72.2436C7.7658 50.05 23.8547 32.0719 46.3837 25.2452C71.7204 17.568 99.7231 26.8962 124.655 16.4114C160.942 1.15114 206.55 13.2702 231.982 42.3048C254.53 68.0468 259.987 109.555 252.909 141.717C249.332 157.971 239.922 173.626 224.944 181.809C213.026 188.32 198.62 189.604 184.992 187.907C174.035 186.543 163.946 182.969 153.406 180.028C144.956 177.67 138.024 178.897 129.376 180.609C118.246 182.811 106.93 184.598 95.5457 184.551Z" fill="#AFAFAF"/>
<path d="M101.763 169.019C99.7113 169.011 97.6568 168.928 95.6005 168.76C73.0621 166.913 46.9529 156.15 35.7311 136.556C25.9203 119.426 22.0677 97.2479 26.5351 78.1432C30.7344 60.1844 43.7531 45.6368 61.9831 40.1132C82.4851 33.9013 105.144 41.4494 125.318 32.9654C154.681 20.6175 191.586 30.424 212.165 53.9176C230.41 74.7476 234.826 108.335 229.099 134.359C226.204 147.512 218.59 160.179 206.469 166.802C196.826 172.07 185.169 173.109 174.141 171.736C165.274 170.632 157.112 167.741 148.582 165.36C141.745 163.452 136.135 164.445 129.137 165.83C120.132 167.612 110.975 169.057 101.763 169.019Z" stroke="white" stroke-width="1.9456" stroke-miterlimit="10" stroke-dasharray="3.85 3.85"/>
<path opacity="0.87" d="M233.428 255.885C239.486 255.885 244.396 255.511 244.396 255.051C244.396 254.591 239.486 254.217 233.428 254.217C227.37 254.217 222.459 254.591 222.459 255.051C222.459 255.511 227.37 255.885 233.428 255.885Z" fill="#515159"/>
<path d="M234.82 223.513C234.82 223.513 225.429 217.133 231.461 207.859C237.494 198.585 235.985 195.362 233.874 192.75C239.001 198.585 237.878 205.232 234.82 209.448C231.762 213.665 231.278 219.403 234.82 223.513Z" fill="#AFAFAF"/>
<path d="M242.482 231.429H224.373L226.141 254.355H240.715L242.482 231.429Z" fill="#FEFEFE"/>
<path d="M244.396 230.257H222.459V232.945H244.396V230.257Z" fill="#8B8B8C"/>
<path d="M240.089 227.839H226.767C225.445 227.839 224.373 228.911 224.373 230.233V230.257H242.483V230.233C242.482 228.911 241.41 227.839 240.089 227.839Z" fill="#5A5A63"/>
<path d="M241.475 244.491L241.904 238.937H224.952L225.38 244.491H241.475Z" fill="#EDB62B"/>
<path d="M242.482 230.257V230.232C242.482 228.91 241.41 227.838 240.088 227.838H233.491C234.813 227.838 235.885 228.91 235.885 230.232V230.257H237.798V232.945H235.768L234.117 254.354H240.715L242.366 232.945H244.396V230.257H242.482Z" fill="#AFAFAF"/>
<path d="M145.26 87.6946C145.26 87.6946 149.055 75.7926 143.51 72.3365C139.986 70.5252 138.06 72.7817 138.06 72.7817C138.06 72.7817 136.402 64.3662 124.982 67.1464C117.584 68.9471 115.251 65.1338 115.251 65.1338C115.251 65.1338 115.182 75.6828 120.276 78.8197C123.965 81.9827 122.55 90.5328 122.55 90.5328L145.26 87.6946Z" fill="#2F2F35"/>
<path opacity="0.87" d="M178.905 243.23C178.905 243.23 199.466 243.848 205.204 249.144C211.239 254.715 217.57 263.415 191.591 263.247C165.612 263.079 142.582 255.929 120.793 258.198C99.0042 260.467 81.124 264.38 75.9153 263.512C70.7065 262.644 107.833 244.859 107.833 244.859L176.762 247.388L178.905 243.23Z" fill="#515159"/>
<path d="M159.673 196.981L133.753 194.377L107.833 196.981C107.833 196.981 106.293 209.228 101.288 215.762C133.753 227.422 133.753 227.422 133.753 227.422C133.753 227.422 133.753 227.422 166.218 215.762C161.213 209.228 159.673 196.981 159.673 196.981Z" fill="#A87D1D"/>
<path d="M132.729 227.054C133.752 227.421 133.753 227.422 133.753 227.422C133.753 227.422 133.754 227.421 134.776 227.054C140.749 213.313 139.32 197.896 138.966 194.901L133.754 194.377L127.083 195.047C126.95 198.34 126.727 213.4 132.729 227.054Z" fill="#A87D1D"/>
<path d="M107.686 197.98C107.687 197.981 134.961 210.01 161.301 204.782C160.118 200.506 159.674 196.981 159.674 196.981L133.754 194.377L112.932 196.469L107.686 197.98Z" fill="#895436"/>
<path d="M120.276 78.819C123.964 81.9821 122.55 90.5322 122.55 90.5322L127.375 89.9292C132.33 85.5192 137.924 79.9357 137.112 77.8327C135.689 74.1465 131.577 70.4672 123.996 70.0463C116.415 69.6255 115.25 65.1331 115.25 65.1331C115.25 65.1331 115.181 75.6822 120.276 78.819Z" fill="#515159"/>
<path d="M132.812 108.686L111.384 116.498L107.833 196.982C107.833 196.982 115.408 200.532 133.753 200.532C133.753 116.88 133.753 109.936 133.753 109.936L132.812 108.686Z" fill="white"/>
<path d="M134.694 108.686L156.123 116.498L159.673 196.982C159.673 196.982 152.099 200.532 133.753 200.532C133.753 116.88 133.753 109.936 133.753 109.936L134.694 108.686Z" fill="white"/>
<path d="M111.384 116.498L111.285 116.533C105.025 118.769 100.024 123.58 97.5464 129.747L74.5448 185.419L94.1041 187.75L110.662 147.169L111.384 116.498Z" fill="#FF7E6E"/>
<path d="M156.123 116.498L156.222 116.533C162.482 118.769 167.484 123.58 169.961 129.747L192.962 185.419L173.403 187.75L156.845 147.169L156.123 116.498Z" fill="#FF7E6E"/>
<path d="M178.892 151.364L169.961 129.747C167.484 123.579 162.482 118.769 156.222 116.533L156.123 116.497L156.845 147.168L161.536 158.664C167.798 153.42 174.08 151.717 178.892 151.364Z" fill="#E8E8E8"/>
<path d="M88.6141 151.364L97.5458 129.747C100.023 123.579 105.025 118.769 111.284 116.533L111.384 116.497L110.661 147.168L105.971 158.664C99.7087 153.42 93.4263 151.717 88.6141 151.364Z" fill="#E8E8E8"/>
<path d="M157.523 148.229C157.523 148.229 156.942 147.416 156.123 145.892L156.846 147.168C156.846 147.168 148.693 192.419 126.898 200.352C128.994 200.464 131.272 200.531 133.754 200.531C152.099 200.531 159.674 196.98 159.674 196.98L157.523 148.229Z" fill="#D3D3D3"/>
<path opacity="0.52" d="M101.288 142.3C106.815 126.795 107.123 126.914 119.196 124.073C131.268 121.232 128.894 110.115 128.894 110.115L117.639 114.218L115.898 114.853L111.384 116.498L111.284 116.533C105.025 118.769 100.023 123.58 97.5457 129.747L75.4974 183.112C84.8088 176.258 96.5799 155.505 101.288 142.3Z" fill="#FFF6E7"/>
<path opacity="0.28" d="M166.218 142.3C160.691 126.795 160.384 126.914 148.311 124.073C136.239 121.232 138.612 110.115 138.612 110.115L149.868 114.218L151.608 114.853L156.122 116.498L156.222 116.533C162.481 118.769 167.483 123.58 169.96 129.747L192.008 183.112C182.698 176.258 170.926 155.505 166.218 142.3Z" fill="#4C2A29"/>
<path d="M133.811 118.615H133.695C130.528 118.615 127.96 116.048 127.96 112.88V99.1857H139.546V112.88C139.547 116.048 136.979 118.615 133.811 118.615Z" fill="#FF7E6E"/>
<path d="M139.454 109.748C139.487 109.748 139.514 109.744 139.547 109.744V99.1857H134.138L127.96 101.418C127.96 101.418 130.259 109.748 139.454 109.748Z" fill="#4C2A29"/>
<path d="M147.231 90.9592C147.231 93.0143 145.565 94.6797 143.51 94.6797C141.456 94.6797 139.79 93.0143 139.79 90.9592C139.79 88.9042 141.456 87.2388 143.51 87.2388C145.565 87.2388 147.231 88.9042 147.231 90.9592Z" fill="#C64F4F"/>
<path d="M144.234 94.6067C144.772 92.45 145.087 89.691 145.259 87.6946C144.736 87.4134 144.146 87.2388 143.51 87.2388C141.455 87.2388 139.789 88.9048 139.789 90.9592C139.789 93.0143 141.455 94.6797 143.51 94.6797C143.759 94.6797 144 94.6529 144.234 94.6067Z" fill="#803D3D"/>
<path d="M120.276 90.9592C120.276 93.0143 121.942 94.6797 123.996 94.6797C126.051 94.6797 127.716 93.0143 127.716 90.9592C127.716 88.9042 126.051 87.2388 123.996 87.2388C121.942 87.2388 120.276 88.9042 120.276 90.9592Z" fill="#C64F4F"/>
<path d="M123.272 94.6067C122.734 92.45 122.419 89.691 122.247 87.6946C122.771 87.4134 123.361 87.2388 123.997 87.2388C126.052 87.2388 127.717 88.9048 127.717 90.9592C127.717 93.0143 126.051 94.6797 123.997 94.6797C123.749 94.6797 123.507 94.6529 123.272 94.6067Z" fill="#803D3D"/>
<path d="M140.301 77.9467H133.753H127.205L123.964 85.0279L124.509 92.036C124.8 95.7758 127.216 102.233 130.616 103.82C131.626 104.292 132.696 104.606 133.753 104.606C134.811 104.606 135.881 104.292 136.891 103.82C140.29 102.233 142.706 95.7764 142.997 92.036L143.542 85.0279L140.301 77.9467Z" fill="#FF7E6E"/>
<path d="M137.112 86.836C137.112 86.836 139.309 87.4521 141.795 86.836" stroke="#2F2F35" stroke-width="1.3362" stroke-miterlimit="10" stroke-linecap="round"/>
<path d="M136.402 82.8088C136.402 82.8088 139.612 82.2751 141.541 83.3868" stroke="#2F2F35" stroke-width="2.6723" stroke-miterlimit="10" stroke-linecap="round"/>
<path d="M130.394 86.836C130.394 86.836 128.197 87.4521 125.711 86.836" stroke="#2F2F35" stroke-width="1.3362" stroke-miterlimit="10" stroke-linecap="round"/>
<path d="M131.104 82.8088C131.104 82.8088 127.895 82.2751 125.966 83.3868" stroke="#2F2F35" stroke-width="2.6723" stroke-miterlimit="10" stroke-linecap="round"/>
<path opacity="0.52" d="M128.535 92.9426C128.107 85.8615 127.205 77.9467 127.205 77.9467L123.964 85.0279L124.138 87.2525C124.09 87.2507 124.045 87.2382 123.997 87.2382C121.942 87.2382 120.276 88.9042 120.276 90.9586C120.276 93.0137 121.942 94.6791 123.997 94.6791C124.322 94.6791 124.633 94.6242 124.933 94.5456C125.809 98.1651 127.897 102.551 130.616 103.82C131.626 104.292 132.696 104.606 133.754 104.606C133.754 104.606 128.963 100.024 128.535 92.9426Z" fill="#FFF6E7"/>
<path d="M156.122 228.464L82.0701 205.997C72.2375 203.013 61.8967 208.802 59.2979 218.742L59.2 219.118C56.5227 229.36 63.1643 239.707 73.5924 241.53C100.972 246.316 150.599 254.455 176.717 255.45L187.727 262.79C189.389 263.898 191.597 263.716 193.054 262.349L193.111 262.296C194.843 260.672 194.932 257.952 193.309 256.219L191.592 254.385C191.592 254.385 190.061 246.928 182.501 243.732C174.942 240.537 174.232 232.725 172.457 228.464C170.681 224.203 159.318 222.073 156.122 228.464Z" fill="#8C4242"/>
<path d="M59.2982 218.742C61.8969 208.801 72.2384 203.013 82.0704 205.997L107.183 213.616C103.4 218.335 98.4111 227.915 98.2603 245.693C89.0916 244.203 80.6089 242.756 73.592 241.53C63.1639 239.707 56.5223 229.359 59.1997 219.118L59.2982 218.742Z" fill="#EDB62B"/>
<path opacity="0.67" d="M82.6583 234.361C82.6583 237.381 81.9338 240.23 80.6569 242.752C78.1772 242.326 75.8048 241.916 73.5926 241.53C63.1645 239.707 56.523 229.359 59.2003 219.118L59.2982 218.742C59.5314 217.85 59.8294 216.992 60.1817 216.169C61.4324 215.904 62.7287 215.761 64.0586 215.761C74.3308 215.762 82.6583 224.089 82.6583 234.361Z" fill="#A87D1D"/>
<path d="M159.673 238.761C159.673 238.761 158.609 244.967 148.311 242.752" stroke="#7B3C38" stroke-width="1.139" stroke-miterlimit="10"/>
<path opacity="0.28" d="M166.218 235.921C166.218 235.921 150.441 235.21 117.064 229.257C90.0238 224.433 82.0916 210.592 80.054 205.51C80.7267 205.634 81.3995 205.793 82.0697 205.996L156.122 228.463C159.318 222.072 170.68 224.202 172.455 228.463C174.23 232.724 174.941 240.536 182.5 243.732C190.059 246.927 191.59 254.384 191.59 254.384C191.59 254.384 183.817 249.413 178.903 248.348C173.99 247.283 166.218 235.921 166.218 235.921Z" fill="#4C2A29"/>
<path d="M169.635 255.051C169.635 255.051 183.233 268.062 194.826 262.707C196.755 261.817 197.359 259.354 196.1 257.643C186.335 244.381 174.022 229.932 169.329 224.502C168.154 223.143 166.295 222.594 164.569 223.095L151.214 226.975L169.635 255.051Z" fill="#2F2F35"/>
<path d="M151.214 226.975L138.423 223.094L148.112 252.91L169.635 255.051L151.214 226.975Z" fill="#A5A5A5"/>
<path d="M111.384 228.464L185.437 205.997C195.269 203.013 205.61 208.802 208.209 218.742L208.307 219.118C210.984 229.36 204.342 239.707 193.914 241.53C166.535 246.316 116.908 254.455 90.7895 255.45L79.7797 262.79C78.1174 263.898 75.9102 263.716 74.4525 262.349L74.3958 262.296C72.6637 260.672 72.5751 257.952 74.1981 256.219L75.9152 254.385C75.9152 254.385 77.4459 246.929 85.0053 243.732C92.5646 240.537 93.2748 232.725 95.0499 228.464C96.8257 224.203 108.188 222.073 111.384 228.464Z" fill="#FF7E6E"/>
<path d="M208.208 218.742C205.609 208.801 195.268 203.013 185.436 205.997L160.323 213.616C164.106 218.335 169.095 227.915 169.245 245.693C178.414 244.203 186.897 242.756 193.914 241.53C204.342 239.707 210.983 229.359 208.306 219.118L208.208 218.742Z" fill="#EDB62B"/>
<path opacity="0.67" d="M184.848 234.361C184.848 237.381 185.573 240.23 186.849 242.752C189.329 242.326 191.702 241.916 193.914 241.53C204.342 239.707 210.983 229.359 208.306 219.118L208.208 218.742C207.975 217.85 207.677 216.992 207.325 216.169C206.074 215.904 204.778 215.761 203.448 215.761C193.176 215.762 184.848 224.089 184.848 234.361Z" fill="#A87D1D"/>
<path opacity="0.28" d="M101.288 235.921C101.288 235.921 117.065 235.21 150.442 229.257C177.483 224.433 185.415 210.592 187.452 205.51C186.78 205.634 186.107 205.793 185.437 205.996L111.384 228.464C108.188 222.073 96.8256 224.203 95.0505 228.464C93.2753 232.725 92.5652 240.536 85.0058 243.732C77.4465 246.928 75.9158 254.385 75.9158 254.385C75.9158 254.385 83.6884 249.414 88.6022 248.349C93.5154 247.283 101.288 235.921 101.288 235.921Z" fill="#4C2A29"/>
<path opacity="0.57" d="M85.0052 243.732L73.9044 241.674C63.8573 240.071 57.053 230.573 58.767 220.544L58.8343 220.151C60.703 209.217 71.8013 202.453 82.3759 205.805L103.336 212.449" stroke="white" stroke-width="1.1139" stroke-miterlimit="10"/>
<path d="M129.946 92.8266C129.547 92.8266 129.313 93.2893 129.558 93.6041C130.669 95.0313 132.141 95.9036 133.759 95.9036C135.377 95.9036 136.848 95.0313 137.96 93.6041C138.205 93.2893 137.971 92.8266 137.571 92.8266H129.946Z" fill="white"/>
<path d="M134.852 86.6796V90.5316C134.852 90.5316 133.966 90.0309 132.734 90.5316" stroke="#2F2F35" stroke-width="0.8212" stroke-miterlimit="10" stroke-linecap="round"/>
<path d="M138.06 72.781H137.112V78.8078H138.06V72.781Z" fill="#FF7E6E"/>
<path d="M192.962 185.419L193.002 185.527C195.221 191.672 192.563 198.513 186.775 201.547L147.231 222.276L147.036 221.771C143.552 212.771 147.196 202.576 155.596 197.824L173.404 187.749L192.962 185.419Z" fill="#FF7E6E"/>
<path opacity="0.28" d="M184.612 198.116C184.612 199.575 184.977 200.948 185.614 202.155L186.775 201.546C191.339 199.154 193.946 194.392 193.759 189.473C193.599 189.464 193.442 189.448 193.28 189.448C188.492 189.448 184.612 193.329 184.612 198.116Z" fill="#4C2A29"/>
<path d="M173.403 187.749L184.612 181.393" stroke="#4C2A29" stroke-width="1.3362" stroke-miterlimit="10" stroke-linecap="round"/>
<path d="M74.66 185.419L74.6208 185.527C72.4011 191.672 75.0597 198.513 80.8471 201.547L120.391 222.276L120.587 221.771C124.071 212.771 120.427 202.576 112.027 197.824L94.2193 187.749L74.66 185.419Z" fill="#FF7E6E"/>
<path opacity="0.28" d="M83.0102 198.116C83.0102 199.575 82.6455 200.948 82.0083 202.155L80.8473 201.546C76.2832 199.154 73.6776 194.392 73.8634 189.473C74.023 189.464 74.1808 189.448 74.3429 189.448C79.1295 189.448 83.0102 193.329 83.0102 198.116Z" fill="#4C2A29"/>
<path d="M94.2193 187.749L83.01 181.393" stroke="#4C2A29" stroke-width="1.3362" stroke-miterlimit="10" stroke-linecap="round"/>
<path d="M116.003 219.975C116.003 219.975 117.999 209.024 111.5 205.51" stroke="#4C2A29" stroke-width="1.3362" stroke-miterlimit="10" stroke-linecap="round"/>
<path d="M151.503 219.975C151.503 219.975 149.507 209.024 156.007 205.51" stroke="#4C2A29" stroke-width="1.3362" stroke-miterlimit="10" stroke-linecap="round"/>
<path d="M97.8713 255.051C97.8713 255.051 84.2733 268.062 72.6805 262.707C70.752 261.817 70.1472 259.354 71.4067 257.643C81.172 244.381 93.4837 229.932 98.1774 224.502C99.3521 223.143 101.212 222.594 102.937 223.095L116.292 226.975L97.8713 255.051Z" fill="#2F2F35"/>
<path d="M116.293 226.975L129.083 223.094L119.394 252.91L97.8712 255.051L116.293 226.975Z" fill="#ECECEC"/>
<path opacity="0.28" d="M110.973 235.083C114.767 234.678 119.695 234.085 125.791 233.225L129.083 223.095L116.293 226.975L110.973 235.083Z" fill="#4C2A29"/>
<path d="M101.947 245.996L94.5262 257.305C94.0642 258.009 93.2387 258.385 92.4038 258.272L92.3546 258.265C90.7472 258.047 89.9291 256.216 90.8388 254.873L98.4281 243.669C98.9138 242.952 99.7911 242.61 100.633 242.807L100.677 242.817C102.09 243.149 102.742 244.783 101.947 245.996Z" fill="#FFF6E7"/>
<path d="M132.734 180.633H87.3229L98.5191 220.513H132.734H166.949L178.145 180.633H132.734Z" fill="#AFAFAF"/>
<path d="M166.948 220.513H98.519V226.322H166.948V220.513Z" fill="#8B8B8C"/>
<path d="M132.812 209.402C138.944 209.402 143.915 206.856 143.915 203.716C143.915 200.576 138.944 198.03 132.812 198.03C126.679 198.03 121.708 200.576 121.708 203.716C121.708 206.856 126.679 209.402 132.812 209.402Z" fill="#5A5A63"/>
<path d="M178.145 177.988H87.3229V180.633H178.145V177.988Z" fill="#5A5A63"/>
<path d="M109.162 222.181H102.309V224.516H109.162V222.181Z" fill="#5A5A63"/>
<path d="M119.053 222.181H112.2V224.516H119.053V222.181Z" fill="#5A5A63"/>
<path d="M166.948 223.417H125.302" stroke="#0F1201" stroke-miterlimit="10"/>
<path opacity="0.54" d="M87.3229 180.633L98.5191 220.514H122.891C137.363 203.735 146.155 180.633 146.155 180.633L146.125 177.988H87.3229V180.633Z" fill="white"/>
<path opacity="0.57" d="M87.3229 180.633H178.145" stroke="#0F1201" stroke-miterlimit="10"/>
<path opacity="0.87" d="M40.143 255.885C49.238 255.885 56.611 255.511 56.611 255.051C56.611 254.591 49.238 254.217 40.143 254.217C31.048 254.217 23.675 254.591 23.675 255.051C23.675 255.511 31.048 255.885 40.143 255.885Z" fill="#515159"/>
<path d="M42.551 246.851L43.6303 245.675L43.0909 246.263L43.6353 245.679C43.5024 245.552 30.5062 232.377 46.2047 173.004L44.6609 172.595C28.6338 233.211 41.9755 246.322 42.551 246.851Z" fill="#5A5A63"/>
<path d="M37.7095 174.025C43.6552 179.429 42.6133 185.817 42.6133 185.817C42.6133 185.817 36.6589 183.278 35.2778 175.364C35.0353 173.976 36.667 173.078 37.7095 174.025Z" fill="#5A5A63"/>
<path d="M52.5856 177.839C44.7731 179.715 42.6127 185.817 42.6127 185.817C42.6127 185.817 49.0541 186.456 54.0739 180.183C54.9543 179.083 53.9554 177.511 52.5856 177.839Z" fill="#5A5A63"/>
<path d="M33.6356 189.553C40.0945 194.332 39.6998 200.792 39.6998 200.792C39.6998 200.792 33.5203 198.865 31.3505 191.129C30.9701 189.772 32.5027 188.715 33.6356 189.553Z" fill="#5A5A63"/>
<path d="M48.8203 191.853C41.236 194.504 39.6997 200.792 39.6997 200.792C39.6997 200.792 46.1729 200.78 50.5362 194.034C51.3012 192.852 50.1496 191.388 48.8203 191.853Z" fill="#5A5A63"/>
<path d="M31.0536 203.17C37.8485 207.457 37.9327 213.93 37.9327 213.93C37.9327 213.93 31.6278 212.464 28.8913 204.91C28.4118 203.586 29.8627 202.418 31.0536 203.17Z" fill="#5A5A63"/>
<path d="M46.3669 204.34C38.9996 207.546 37.9327 213.93 37.9327 213.93C37.9327 213.93 44.3872 213.439 48.2399 206.388C48.9151 205.153 47.6588 203.778 46.3669 204.34Z" fill="#5A5A63"/>
<path d="M50.4464 162.128C50.5811 170.162 45.2121 173.777 45.2121 173.777C45.2121 173.777 42.985 167.699 47.8059 161.272C48.6507 160.146 50.4227 160.72 50.4464 162.128Z" fill="#5A5A63"/>
<path d="M48.15 220.526H30.8859V254.679H48.15V220.526Z" fill="#EDB62B"/>
<path opacity="0.67" d="M48.1501 220.526H41.2529V254.679H48.1501V220.526Z" fill="#A87D1D"/>
<path d="M55.7313 57.6343L49.5193 59.1793C48.6184 59.4038 47.7056 58.8545 47.4817 57.9535L46.8838 55.5493L56.3598 53.1924L56.9577 55.5967C57.1816 56.4983 56.6329 57.4104 55.7313 57.6343Z" fill="#A87D1D"/>
<path d="M78.8145 50.2264L25.1508 63.5725C24.2199 63.8038 23.2772 63.2371 23.0452 62.3056L14.1952 26.7198C13.9639 25.7889 14.5307 24.8461 15.4622 24.6142L69.1258 11.2681C70.0567 11.0368 70.9995 11.6035 71.2308 12.5351L80.0808 48.1209C80.3127 49.0524 79.7453 49.9945 78.8145 50.2264Z" fill="#A87D1D"/>
<path d="M77.2239 44.0762L75.7275 48.3759L28.115 60.2168L23.887 57.3412L15.1174 22.0821L68.455 8.81711L77.2239 44.0762Z" fill="#EDB62B"/>
<path d="M41.0986 15.6215L15.1143 22.0827L23.8815 57.3407L49.8659 50.8794L41.0986 15.6215Z" fill="white"/>
<path d="M39.493 18.6383L18.1433 23.9471L18.4499 25.1802L39.7996 19.8714L39.493 18.6383Z" fill="#AFAFAF"/>
<path d="M40.4785 22.5772L19.1288 27.8882L19.4355 29.1213L40.7852 23.8102L40.4785 22.5772Z" fill="#AFAFAF"/>
<path d="M41.4547 26.5286L20.105 31.8374L20.4116 33.0705L41.7613 27.7617L41.4547 26.5286Z" fill="#AFAFAF"/>
<path d="M42.4359 30.4733L21.0862 35.7821L21.3928 37.0152L42.7425 31.7064L42.4359 30.4733Z" fill="#AFAFAF"/>
<path d="M43.4218 34.412L22.0721 39.723L22.3789 40.9561L43.7286 35.6451L43.4218 34.412Z" fill="#AFAFAF"/>
<path d="M44.3975 38.3636L23.0479 43.6724L23.3545 44.9055L44.7042 39.5967L44.3975 38.3636Z" fill="#AFAFAF"/>
<path d="M45.3786 42.3083L24.0289 47.6171L24.3356 48.8502L45.6852 43.5414L45.3786 42.3083Z" fill="#AFAFAF"/>
<path d="M46.3659 46.2468L25.0162 51.5579L25.323 52.7909L46.6727 47.4799L46.3659 46.2468Z" fill="#AFAFAF"/>
<path d="M68.4523 8.81104L42.4679 15.275L51.2388 50.5329L77.2231 44.069L68.4523 8.81104Z" fill="white"/>
<path d="M66.6504 11.8777L45.3007 17.1887L45.6074 18.4218L66.9571 13.1108L66.6504 11.8777Z" fill="#AFAFAF"/>
<path d="M67.6283 15.8315L46.2786 21.1403L46.5852 22.3734L67.9349 17.0646L67.6283 15.8315Z" fill="#AFAFAF"/>
<path d="M68.6089 19.777L47.2592 25.0858L47.5658 26.3189L68.9155 21.0101L68.6089 19.777Z" fill="#AFAFAF"/>
<path d="M69.5943 23.7124L48.2446 29.0235L48.5514 30.2565L69.9011 24.9455L69.5943 23.7124Z" fill="#AFAFAF"/>
<path d="M70.571 27.6665L49.2213 32.9754L49.5279 34.2085L70.8776 28.8996L70.571 27.6665Z" fill="#AFAFAF"/>
<path d="M71.5517 31.612L50.202 36.9208L50.5086 38.1539L71.8583 32.8451L71.5517 31.612Z" fill="#AFAFAF"/>
<path d="M72.5383 35.5471L51.1886 40.8582L51.4953 42.0912L72.845 36.7802L72.5383 35.5471Z" fill="#AFAFAF"/>
<path d="M73.5134 39.5016L52.1637 44.8105L52.4703 46.0436L73.82 40.7347L73.5134 39.5016Z" fill="#AFAFAF"/>
<path d="M54.1039 55.5736L49.9925 56.5961C49.0916 56.82 48.18 56.2713 47.9555 55.371L47.5802 53.8615L54.9537 52.0277L55.3291 53.5372C55.5529 54.4376 55.0043 55.3498 54.1039 55.5736Z" fill="#EDB62B"/>
<path d="M145.355 4.87408C143.223 2.84645 140.529 1.46352 137.755 0.539486C137.736 0.533251 137.694 0.521404 137.63 0.50457C135.117 -0.16819 132.469 -0.16819 129.956 0.50457C129.893 0.521404 129.85 0.533251 129.831 0.539486C127.057 1.46352 124.363 2.84707 122.231 4.87408C115.884 10.909 116.915 21.8627 123.096 27.6425C124.83 29.2636 125.592 31.3567 126.122 33.6643C126.282 34.3595 127.202 41.6078 126.881 41.6078C129.983 41.6078 133.793 41.6078 133.793 41.6078C133.793 41.6078 137.602 41.6078 140.704 41.6078C140.384 41.6078 141.303 34.3589 141.463 33.6643C141.994 31.3574 142.755 29.2643 144.489 27.6425C150.671 21.8633 151.702 10.9096 145.355 4.87408Z" fill="#EDB62B"/>
<path opacity="0.52" d="M131.307 33.6643C130.777 31.3573 130.015 29.2642 128.281 27.6425C122.1 21.8626 121.069 10.9089 127.416 4.87402C129.548 2.84639 132.243 1.46346 135.016 0.539428C135.035 0.533193 135.078 0.521346 135.141 0.504512C135.553 0.394152 135.968 0.308731 136.386 0.234534C134.253 -0.143932 132.057 -0.0585116 129.956 0.504512C129.893 0.521346 129.85 0.533193 129.831 0.539428C127.057 1.46346 124.363 2.84701 122.231 4.87402C115.884 10.9089 116.915 21.8626 123.096 27.6425C124.83 29.2636 125.592 31.3567 126.122 33.6643C126.282 34.3595 127.202 41.6077 126.881 41.6077C128.662 41.6077 130.673 41.6077 132.066 41.6077C132.387 41.6077 131.468 34.3588 131.307 33.6643Z" fill="#FFF6E7"/>
<path d="M133.793 41.6077V24.7033L136.769 22.9881C137.752 22.4213 137.555 20.948 136.458 20.6587L131.044 19.2296C130.12 18.9858 130.015 17.7176 130.886 17.3254L133.793 16.0179V10.2798" stroke="#FEFEFE" stroke-width="2.2387" stroke-miterlimit="10" stroke-linecap="round"/>
<path d="M142.08 43.934C142.08 44.4478 141.664 44.8643 141.15 44.8643H125.952C125.438 44.8643 125.021 44.4478 125.021 43.934C125.021 43.4203 125.438 43.0038 125.952 43.0038H141.15C141.663 43.0038 142.08 43.4203 142.08 43.934Z" fill="#2F2F35"/>
<path d="M142.08 46.7255C142.08 47.2392 141.664 47.6563 141.15 47.6563H125.952C125.438 47.6563 125.021 47.2399 125.021 46.7255C125.021 46.2117 125.438 45.7952 125.952 45.7952H141.15C141.663 45.7952 142.08 46.2117 142.08 46.7255Z" fill="#2F2F35"/>
<path d="M142.08 49.5169C142.08 50.0307 141.664 50.4472 141.15 50.4472H125.952C125.438 50.4472 125.021 50.0307 125.021 49.5169C125.021 49.0031 125.438 48.586 125.952 48.586H141.15C141.663 48.5866 142.08 49.0031 142.08 49.5169Z" fill="#2F2F35"/>
<path d="M133.55 56.9609C136.548 56.9609 138.978 54.5305 138.978 51.5327H128.122C128.122 54.5311 130.552 56.9609 133.55 56.9609Z" fill="#2F2F35"/>
<path d="M197.854 60.5298V56.1597H195.923C195.557 54.084 194.709 52.1799 193.497 50.5581L195.029 49.0262L191.939 45.9361L190.349 47.5254C188.722 46.4143 186.831 45.6699 184.794 45.3762V43.0936H180.425V45.4616C178.471 45.8301 176.676 46.6294 175.127 47.7536L173.58 46.2067L170.49 49.2968L172.057 50.8636C170.912 52.4916 170.133 54.3883 169.817 56.4409H167.647V60.8104H169.865C170.223 62.8131 171.029 64.6549 172.179 66.2374L170.472 67.9445L173.562 71.0346L175.291 69.3062C176.876 70.4198 178.716 71.1873 180.707 71.5191V73.8778H185.076V71.5191C187.06 71.1892 188.894 70.426 190.476 69.3187L191.921 70.764L195.011 67.6739L193.591 66.2536C194.8 64.5944 195.628 62.6466 195.961 60.5298H197.854ZM182.891 65.9019C178.786 65.9019 175.458 62.5737 175.458 58.4685C175.458 54.3627 178.786 51.0351 182.891 51.0351C186.997 51.0351 190.325 54.3634 190.325 58.4685C190.325 62.5743 186.997 65.9019 182.891 65.9019Z" fill="#666666"/>
<path d="M215.279 77.1038V74.583H214.165C213.954 73.3852 213.465 72.2872 212.766 71.3513L213.65 70.4672L211.868 68.6846L210.951 69.6012C210.013 68.9602 208.922 68.5306 207.746 68.361V67.0442H205.225V68.4103C204.099 68.6229 203.062 69.0843 202.169 69.7327L201.277 68.8405L199.494 70.6231L200.398 71.5272C199.738 72.4662 199.288 73.5604 199.106 74.7444H197.854V77.2653H199.134C199.34 78.4206 199.806 79.4831 200.469 80.3959L199.484 81.381L201.266 83.1636L202.263 82.1666C203.178 82.8095 204.239 83.2521 205.387 83.4429V84.8034H207.908V83.4429C209.052 83.2528 210.111 82.8126 211.023 82.1735L211.856 83.0071L213.639 81.2245L212.82 80.4052C213.517 79.4482 213.996 78.3246 214.186 77.1032L215.279 77.1038ZM206.648 80.2026C204.28 80.2026 202.359 78.2828 202.359 75.9141C202.359 73.5461 204.279 71.6257 206.648 71.6257C209.016 71.6257 210.936 73.5455 210.936 75.9141C210.936 78.2828 209.016 80.2026 206.648 80.2026Z" fill="#9E9E9E"/>
<path d="M254.996 44.4553V35.4812H251.03C250.28 31.2183 248.538 27.3083 246.049 23.977L249.195 20.8301L242.85 14.4848L239.587 17.7482C236.246 15.4668 232.363 13.9379 228.179 13.3338V8.64627H219.205V13.5096C215.194 14.2659 211.505 15.9082 208.325 18.217L205.149 15.0409L198.803 21.3863L202.021 24.6042C199.67 27.9474 198.07 31.8424 197.421 36.058H192.965V45.032H197.52C198.255 49.1447 199.912 52.9268 202.272 56.1765L198.766 59.6831L205.111 66.0285L208.662 62.4789C211.917 64.7665 215.695 66.3427 219.783 67.023V71.867H228.757V67.023C232.831 66.3452 236.598 64.7784 239.845 62.5038L242.814 65.4723L249.159 59.1269L246.243 56.2108C248.727 52.8034 250.428 48.8042 251.11 44.4559L254.996 44.4553ZM224.27 55.4888C215.839 55.4888 209.004 48.654 209.004 40.2236C209.004 31.7926 215.839 24.9577 224.27 24.9577C232.701 24.9577 239.535 31.7926 239.535 40.2236C239.535 48.654 232.701 55.4888 224.27 55.4888Z" fill="#8B8B8C"/>
<path d="M223.981 49.2151C228.928 49.2151 232.939 45.2045 232.939 40.2572C232.939 35.3099 228.928 31.2994 223.981 31.2994C219.034 31.2994 215.023 35.3099 215.023 40.2572C215.023 45.2045 219.034 49.2151 223.981 49.2151Z" fill="#666666"/>
<path d="M49.4911 86.0816C30.2436 87.2488 15.282 98.7836 16.0745 111.845C16.867 124.906 33.1124 134.548 52.3599 133.38C52.3742 133.379 52.3886 133.378 52.4029 133.377C54.2971 133.261 55.6221 131.431 55.1538 129.592C54.9262 128.697 54.7978 127.76 54.7828 126.793C54.6849 120.567 59.5009 115.218 65.7022 114.657C70.2027 114.251 74.314 116.366 76.6871 119.809C77.858 121.508 80.3471 121.629 81.6134 119.999C84.5071 116.274 86.0446 112.034 85.7765 107.617C84.9847 94.5556 68.7393 84.9138 49.4911 86.0816Z" fill="#5A5A63"/>
<path d="M49.3633 83.9679C30.1158 85.1351 15.1542 96.6699 15.9467 109.731C16.7392 122.792 32.9845 132.434 52.2327 131.266C52.247 131.266 52.2614 131.264 52.2757 131.264C54.1699 131.147 55.4949 129.317 55.0266 127.478C54.799 126.584 54.6706 125.647 54.6556 124.679C54.5578 118.453 59.3737 113.104 65.575 112.544C70.0755 112.137 74.1869 114.253 76.5599 117.696C77.7309 119.395 80.2199 119.515 81.4862 117.885C84.3799 114.16 85.9174 109.92 85.6493 105.504C84.8562 92.442 68.6109 82.8001 49.3633 83.9679Z" fill="#8B8B8C"/>
<path d="M42.5654 120.994C42.7063 123.314 40.9393 125.309 38.6192 125.45C36.2991 125.591 34.3039 123.824 34.163 121.504C34.0221 119.184 35.7891 117.189 38.1092 117.048C40.4292 116.907 42.4244 118.674 42.5654 120.994Z" fill="#EDB62B"/>
<path d="M31.099 113.028C31.24 115.348 29.4729 117.343 27.1529 117.484C24.8328 117.625 22.8376 115.858 22.6967 113.538C22.5558 111.218 24.3228 109.223 26.6429 109.082C28.9635 108.941 30.9581 110.708 31.099 113.028Z" fill="#EDB62B"/>
<path d="M34.4704 99.0954C34.6113 101.415 32.8443 103.411 30.5242 103.552C28.2042 103.692 26.209 101.925 26.0681 99.6054C25.9271 97.2853 27.6941 95.2901 30.0142 95.1492C32.3349 95.0083 34.3301 96.7753 34.4704 99.0954Z" fill="#EDB62B"/>
<path d="M48.6806 91.5653C48.8215 93.8854 47.0545 95.8806 44.7344 96.0215C42.4144 96.1624 40.4192 94.3954 40.2783 92.0754C40.1373 89.7553 41.9044 87.7601 44.2244 87.6192C46.5445 87.4783 48.5397 89.2453 48.6806 91.5653Z" fill="#EDB62B"/>
<path d="M64.6867 91.7711C64.8276 94.0911 63.0606 96.0864 60.7405 96.2273C58.4205 96.3682 56.4253 94.6012 56.2844 92.2811C56.1435 89.9611 57.9105 87.9658 60.2305 87.8249C62.5506 87.684 64.5458 89.451 64.6867 91.7711Z" fill="#EDB62B"/>
<path d="M78.196 99.3847C78.3369 101.705 76.5699 103.7 74.2498 103.841C71.9298 103.982 69.9346 102.215 69.7936 99.8947C69.6527 97.5746 71.4197 95.5794 73.7398 95.4385C76.0605 95.2976 78.0557 97.0646 78.196 99.3847Z" fill="#EDB62B"/>
<path opacity="0.68" d="M68.0959 86.4607L64.1335 94.7508C63.611 94.7252 63.106 95.022 62.8977 95.5345L62.8865 95.5626C62.6222 96.211 62.9339 96.9511 63.583 97.2155L63.9546 97.367C63.8816 97.3427 63.5038 97.2984 62.7069 98.4587C62.7063 98.4594 62.7063 98.4594 62.7063 98.46C62.6583 98.5298 62.6084 98.6053 62.5573 98.6845C62.5523 98.6926 62.5473 98.7 62.5417 98.7081C62.4943 98.7823 62.4451 98.8609 62.3946 98.9432C62.3846 98.96 62.3746 98.9763 62.364 98.9931C62.3166 99.071 62.2686 99.1527 62.2194 99.2381C62.205 99.2631 62.1901 99.2886 62.1751 99.3148C62.1283 99.3965 62.081 99.4813 62.0323 99.5698C62.013 99.6047 61.9937 99.6409 61.9737 99.6771C61.9276 99.7625 61.8802 99.851 61.8322 99.9427C61.8085 99.9876 61.7848 100.034 61.7605 100.08C61.7143 100.17 61.6676 100.261 61.6196 100.356C61.5915 100.412 61.5628 100.47 61.5335 100.529C61.4874 100.622 61.4412 100.716 61.3945 100.814C61.3621 100.881 61.329 100.951 61.2953 101.021C61.2492 101.119 61.2024 101.218 61.1551 101.321C61.1189 101.398 61.0821 101.48 61.0453 101.56C60.9986 101.663 60.9518 101.766 60.9038 101.874C60.8633 101.965 60.8215 102.061 60.7797 102.156C60.7336 102.261 60.6874 102.366 60.64 102.476C60.5945 102.582 60.5478 102.693 60.501 102.803C60.4549 102.913 60.4087 103.021 60.3613 103.135C60.3115 103.255 60.2603 103.381 60.2092 103.505C60.1631 103.618 60.1175 103.728 60.0702 103.845C60.0153 103.982 59.9579 104.126 59.9018 104.269C59.8563 104.385 59.8114 104.497 59.7646 104.616C59.7017 104.777 59.6368 104.947 59.572 105.115C59.5302 105.224 59.4891 105.329 59.4467 105.441C59.37 105.643 59.2914 105.855 59.2122 106.067C59.1792 106.156 59.1468 106.241 59.1131 106.332C58.9996 106.64 58.8836 106.957 58.7652 107.287C58.4478 108.17 58.0768 109.21 57.6678 110.364C57.6204 110.498 57.5743 110.628 57.525 110.765C57.4633 110.94 57.3984 111.123 57.3348 111.303C57.2819 111.453 57.2301 111.599 57.1759 111.752C57.0923 111.989 57.0063 112.233 56.9202 112.478C56.8816 112.587 56.8442 112.694 56.8049 112.805C56.7195 113.047 56.6322 113.295 56.5449 113.544C56.5006 113.67 56.4563 113.794 56.4114 113.923C56.3291 114.156 56.2456 114.395 56.1614 114.634C56.1097 114.782 56.0585 114.927 56.0062 115.076C55.9095 115.353 55.811 115.634 55.7119 115.916C55.6745 116.022 55.6383 116.126 55.6009 116.234C55.5005 116.522 55.3983 116.814 55.2954 117.108C55.2517 117.233 55.2081 117.357 55.1644 117.483C55.069 117.756 54.9724 118.034 54.8758 118.311C54.8265 118.453 54.7779 118.592 54.728 118.735C54.6251 119.029 54.5216 119.327 54.4181 119.626C54.3732 119.754 54.3289 119.882 54.2847 120.011C54.1824 120.304 54.0795 120.601 53.9767 120.899C53.9249 121.047 53.8738 121.194 53.8227 121.343C53.7304 121.61 53.6375 121.878 53.5446 122.147C53.4785 122.337 53.413 122.527 53.3469 122.719C53.2671 122.949 53.1867 123.182 53.1069 123.414C53.0308 123.635 52.9547 123.855 52.8781 124.076C52.7926 124.324 52.7066 124.573 52.6212 124.822C52.5763 124.952 52.5314 125.081 52.4865 125.212C51.7875 127.243 51.083 129.303 50.3896 131.345C51.0007 131.329 51.6155 131.304 52.2333 131.266C52.2477 131.266 52.262 131.264 52.2764 131.264C54.1706 131.147 55.4955 129.317 55.0273 127.478C54.7997 126.584 54.6712 125.647 54.6563 124.679C54.5709 119.23 58.2483 114.453 63.3248 112.97C63.886 111.755 64.3873 110.665 64.8069 109.745C69.2724 99.9664 68.1626 99.0897 68.0223 99.0218L68.3939 99.1733C69.0424 99.437 69.7825 99.1253 70.0468 98.4768L70.0581 98.4488C70.305 97.8421 70.0443 97.1606 69.4788 96.8582L72.4479 88.3225C71.075 87.6279 69.6216 87.005 68.0959 86.4607Z" fill="#2F2F35"/>
<path opacity="0.42" d="M33.7422 98.4513C33.8008 99.4214 33.0619 100.256 32.0918 100.315C31.1216 100.374 30.2867 99.6347 30.2281 98.6645C30.1695 97.6943 30.9084 96.8595 31.8785 96.8009C32.8487 96.7422 33.6829 97.4811 33.7422 98.4513Z" fill="white"/>
<path opacity="0.42" d="M47.9612 91.0721C48.0198 92.0423 47.2809 92.8772 46.3108 92.9358C45.3406 92.9944 44.5057 92.2555 44.4471 91.2854C44.3885 90.3152 45.1274 89.4803 46.0975 89.4217C47.0677 89.3625 47.9019 90.1013 47.9612 91.0721Z" fill="white"/>
<path opacity="0.42" d="M63.0168 90.6955C63.0754 91.6657 62.3366 92.5006 61.3664 92.5592C60.3962 92.6178 59.5614 91.8789 59.5028 90.9087C59.4442 89.9386 60.183 89.1037 61.1532 89.0451C62.1234 88.9865 62.9576 89.7253 63.0168 90.6955Z" fill="white"/>
<path opacity="0.42" d="M29.3246 111.786C29.3832 112.756 28.6443 113.591 27.6742 113.65C26.704 113.708 25.8691 112.97 25.8105 111.999C25.7519 111.029 26.4908 110.194 27.4609 110.136C28.4311 110.077 29.2653 110.816 29.3246 111.786Z" fill="white"/>
<path opacity="0.42" d="M41.8016 119.773C41.8602 120.743 41.1214 121.578 40.1512 121.636C39.181 121.695 38.3462 120.956 38.2876 119.986C38.229 119.016 38.9678 118.181 39.938 118.122C40.9081 118.064 41.7424 118.802 41.8016 119.773Z" fill="white"/>
<path d="M83.4851 83.9567C83.4851 83.9567 89.2275 80.818 89.5954 75.9671C89.5723 73.1003 88.3272 70.7478 88.3272 70.7478L87.541 73.7019C87.541 73.7019 87.1089 69.0612 83.795 66.8191C80.481 64.577 81.2966 65.2067 81.2966 65.2067C81.2966 65.2067 84.0793 68.8997 80.9904 75.0238C77.9016 81.1478 81.7998 83.2708 81.7998 83.2708L83.4851 83.9567Z" fill="#EDB62B"/>
<path d="M83.1305 81.9684C83.1305 81.9684 82.0917 76.6424 84.4654 73.7805C81.3797 77.6924 80.7424 80.8355 81.5174 83.375C83.1304 81.9684 83.1305 81.9684 83.1305 81.9684Z" fill="#A87D1D"/>
<path d="M80.3565 83.0208C80.8622 81.997 82.0724 81.5375 83.1305 81.9683L83.1492 81.9758L83.1679 81.9833C84.2253 82.4141 84.7709 83.5882 84.4174 84.6743L80.6414 96.2746L77.7983 95.1168L74.9551 93.9589L80.3565 83.0208Z" fill="white"/>
<path d="M74.5155 96.5521L79.3259 98.5105C79.9743 98.7749 80.7144 98.4631 80.9788 97.8141L80.99 97.786C81.2544 97.1369 80.9426 96.3975 80.2935 96.1331L75.4832 94.1747C74.8348 93.9103 74.0947 94.2221 73.8303 94.8711L73.8191 94.8992C73.5554 95.5476 73.8671 96.2877 74.5155 96.5521Z" fill="#CCCCCC"/>
<path d="M74.9015 96.7086L76.921 97.5304L78.9405 98.3528C78.9405 98.3528 80.4731 98.715 75.7389 109.082C72.2204 116.787 63.1703 136.112 57.9553 146.437C57.4677 147.403 56.005 146.808 56.3305 145.776C59.8109 134.744 66.8334 114.594 69.6977 106.622C73.5516 95.8974 74.9015 96.7086 74.9015 96.7086Z" fill="#2F2F35"/>
<path d="M64.1305 133.816C61.8765 138.516 59.7005 142.982 57.9547 146.438C57.4671 147.404 56.0044 146.808 56.3298 145.776C57.4952 142.083 59.0577 137.368 60.7274 132.43L64.1305 133.816Z" fill="white"/>
<path opacity="0.75" d="M63.4183 124.549C70.838 115.365 73.6276 97.8714 73.64 97.7953C72.8164 98.995 71.5457 101.481 69.6976 106.624C68.2979 110.519 65.9055 117.322 63.4183 124.549Z" fill="white"/>
<path d="M207.069 103.012L208.383 105.675L211.322 106.102L209.195 108.175L209.697 111.103L207.069 109.721L204.439 111.103L204.942 108.175L202.815 106.102L205.754 105.675L207.069 103.012Z" fill="#9E9E9E"/>
<path d="M244.913 99.2905L246.749 103.01L250.853 103.606L247.884 106.501L248.584 110.589L244.913 108.659L241.243 110.589L241.943 106.501L238.974 103.606L243.078 103.01L244.913 99.2905Z" fill="#666666"/>
<path d="M233.428 155.027L234.452 157.103L236.743 157.436L235.085 159.052L235.477 161.333L233.428 160.256L231.379 161.333L231.77 159.052L230.112 157.436L232.403 157.103L233.428 155.027Z" fill="#9E9E9E"/>
<path d="M196.875 140.964L198.71 144.683L202.814 145.279L199.845 148.174L200.546 152.262L196.875 150.332L193.204 152.262L193.905 148.174L190.935 145.279L195.039 144.683L196.875 140.964Z" fill="#666666"/>
<path d="M232.071 149.753C242.564 145.545 247.659 133.628 243.452 123.135C239.244 112.642 227.327 107.547 216.834 111.754C206.341 115.962 201.245 127.879 205.453 138.372C209.661 148.865 221.578 153.961 232.071 149.753Z" fill="#EDB62B"/>
<g opacity="0.67">
<path d="M218.938 150.466C226.169 152.483 233.573 150.352 238.624 145.506C235.203 146.422 231.501 146.467 227.843 145.447C216.954 142.408 210.59 131.118 213.628 120.23C214.649 116.571 216.604 113.427 219.159 110.976C212.399 112.787 206.741 118.019 204.724 125.249C201.686 136.138 208.05 147.427 218.938 150.466Z" fill="#A87D1D"/>
</g>
<path opacity="0.52" d="M229.941 111.035C228.922 110.75 227.898 110.548 226.878 110.424C226.345 112.339 226.053 114.353 226.053 116.437C226.053 127.092 233.513 135.999 243.493 138.236C243.745 137.593 243.967 136.931 244.156 136.252C247.193 125.363 240.829 114.073 229.941 111.035Z" fill="#FFF6E7"/>
<path d="M204.041 129.066C196.101 125.972 191.161 123.173 191.576 121.686C192.267 119.212 207.51 121.304 225.623 126.358C243.737 131.412 257.86 137.515 257.17 139.989C256.757 141.472 251.118 141.315 242.767 139.863" stroke="#666666" stroke-width="2" stroke-miterlimit="10"/>
</svg>
